<svg width="35" height="35" viewBox="0 0 35 35" fill="none" xmlns="http://www.w3.org/2000/svg">
<rect width="35" height="35" rx="17.5" fill="#B3D4FF"/>
<path d="M11.3963 27.0007H23.8796C24.7074 27.0007 25.5012 26.6718 26.0865 26.0866C26.6716 25.5013 27.0005 24.7076 27.0005 23.8798V11.3964C27.0005 10.5687 26.6716 9.7749 26.0865 9.1896C25.5011 8.60441 24.7074 8.27557 23.8796 8.27557H11.3963C10.5685 8.27557 9.77472 8.60442 9.18942 9.1896C8.60423 9.77493 8.27539 10.5687 8.27539 11.3964V23.8798C8.27539 24.7076 8.60424 25.5013 9.18942 26.0866C9.77475 26.6718 10.5685 27.0007 11.3963 27.0007ZM23.8796 25.4402H11.3963C10.9824 25.4402 10.5855 25.2759 10.2928 24.9832C10.0001 24.6905 9.83581 24.2937 9.83581 23.8798V14.5172H25.44V23.8798C25.44 24.2937 25.2756 24.6905 24.983 24.9832C24.6903 25.2759 24.2934 25.4402 23.8795 25.4402H23.8796ZM11.3963 9.83603H23.8796C24.2935 9.83603 24.6904 10.0004 24.9831 10.293C25.2757 10.5857 25.4401 10.9826 25.4401 11.3965V12.9569H9.83588V11.3965C9.83588 10.9826 10.0002 10.5857 10.2929 10.293C10.5855 10.0004 10.9824 9.83603 11.3963 9.83603H11.3963Z" fill="#326ECF"/>
<path d="M13.7372 19.9787C13.7372 20.4096 13.3879 20.759 12.957 20.759C12.5261 20.759 12.1768 20.4096 12.1768 19.9787C12.1768 19.5479 12.5261 19.1986 12.957 19.1986C13.3879 19.1986 13.7372 19.5479 13.7372 19.9787Z" fill="#326ECF"/>
<path d="M13.7372 23.0996C13.7372 23.5305 13.3879 23.8798 12.957 23.8798C12.5261 23.8798 12.1768 23.5305 12.1768 23.0996C12.1768 22.6687 12.5261 22.3193 12.957 22.3193C13.3879 22.3193 13.7372 22.6687 13.7372 23.0996Z" fill="#326ECF"/>
<path d="M16.8573 19.9787C16.8573 20.4096 16.5079 20.759 16.077 20.759C15.6461 20.759 15.2969 20.4096 15.2969 19.9787C15.2969 19.5479 15.6461 19.1986 16.077 19.1986C16.5079 19.1986 16.8573 19.5479 16.8573 19.9787Z" fill="#326ECF"/>
<path d="M16.8573 23.0996C16.8573 23.5305 16.5079 23.8798 16.077 23.8798C15.6461 23.8798 15.2969 23.5305 15.2969 23.0996C15.2969 22.6687 15.6461 22.3193 16.077 22.3193C16.5079 22.3193 16.8573 22.6687 16.8573 23.0996Z" fill="#326ECF"/>
<path d="M19.9784 19.9787C19.9784 20.4096 19.6291 20.759 19.1982 20.759C18.7674 20.759 18.418 20.4096 18.418 19.9787C18.418 19.5479 18.7674 19.1986 19.1982 19.1986C19.6291 19.1986 19.9784 19.5479 19.9784 19.9787Z" fill="#326ECF"/>
<path d="M19.9784 23.0996C19.9784 23.5305 19.6291 23.8798 19.1982 23.8798C18.7674 23.8798 18.418 23.5305 18.418 23.0996C18.418 22.6687 18.7674 22.3193 19.1982 22.3193C19.6291 22.3193 19.9784 22.6687 19.9784 23.0996Z" fill="#326ECF"/>
<path d="M23.0995 19.9787C23.0995 20.4096 22.7501 20.759 22.3192 20.759C21.8883 20.759 21.5391 20.4096 21.5391 19.9787C21.5391 19.5479 21.8883 19.1986 22.3192 19.1986C22.7501 19.1986 23.0995 19.5479 23.0995 19.9787Z" fill="#326ECF"/>
<path d="M16.8573 16.8579C16.8573 17.2888 16.5079 17.6381 16.077 17.6381C15.6461 17.6381 15.2969 17.2888 15.2969 16.8579C15.2969 16.427 15.6461 16.0776 16.077 16.0776C16.5079 16.0776 16.8573 16.427 16.8573 16.8579Z" fill="#326ECF"/>
<path d="M19.9784 16.8579C19.9784 17.2888 19.6291 17.6381 19.1982 17.6381C18.7674 17.6381 18.418 17.2888 18.418 16.8579C18.418 16.427 18.7674 16.0776 19.1982 16.0776C19.6291 16.0776 19.9784 16.427 19.9784 16.8579Z" fill="#326ECF"/>
<path d="M23.0995 16.8579C23.0995 17.2888 22.7501 17.6381 22.3192 17.6381C21.8883 17.6381 21.5391 17.2888 21.5391 16.8579C21.5391 16.427 21.8883 16.0776 22.3192 16.0776C22.7501 16.0776 23.0995 16.427 23.0995 16.8579Z" fill="#326ECF"/>
</svg>
