<svg width="35" height="35" viewBox="0 0 35 35" fill="none" xmlns="http://www.w3.org/2000/svg">
<rect width="35" height="35" rx="17.5" fill="#B3D4FF"/>
<path d="M21.388 20.0436C21.2578 20.0436 21.1249 20.0148 21.0009 19.9546L17.5287 18.2588C17.2344 18.1147 17.0487 17.8213 17.0487 17.5V11.565C17.0487 11.097 17.4376 10.7172 17.9167 10.7172C18.3958 10.7172 18.7847 11.097 18.7847 11.565V16.976L21.7769 18.4377C22.2057 18.6471 22.3792 19.1567 22.1649 19.5755C22.0131 19.8723 21.7066 20.0435 21.388 20.0435L21.388 20.0436ZM17.9167 27.6744C12.1726 27.6744 7.5 23.1104 7.5 17.5C7.5 11.8895 12.1726 7.32556 17.9167 7.32556C23.6607 7.32556 28.3333 11.8895 28.3333 17.5C28.3333 23.1104 23.6607 27.6744 17.9167 27.6744ZM17.9167 9.02142C13.1302 9.02142 9.23623 12.8248 9.23623 17.5C9.23623 22.1751 13.1302 25.9785 17.9167 25.9785C22.7031 25.9785 26.5971 22.1751 26.5971 17.5C26.5971 12.8248 22.7031 9.02142 17.9167 9.02142Z" fill="#326ECF"/>
</svg>
