<svg width="111" height="231" viewBox="0 0 111 231" fill="none" xmlns="http://www.w3.org/2000/svg">
<rect width="110.134" height="230.28" rx="17.3287" fill="black"/>
<g filter="url(#filter0_i_112_6183)">
<path d="M43.9177 0H66.2161L65.9919 0.593365C65.907 0.818108 65.6918 0.966821 65.4516 0.966821H44.6823C44.442 0.966821 44.2268 0.818108 44.1419 0.593364L43.9177 0Z" fill="black"/>
</g>
<g clip-path="url(#clip0_112_6183)">
<rect x="3.46558" y="3.46582" width="103.202" height="223.348" rx="14.0767" fill="white"/>
<g clip-path="url(#clip1_112_6183)">
<rect width="103.202" height="223.34" transform="translate(3.46558 3.46973)" fill="#6F5EEA"/>
<path d="M23.8883 38.3037V38.5309H24.1154V38.3037H23.8883ZM23.8883 -2.45317H24.1154V-2.68034H23.8883V-2.45317ZM13.5244 -2.45317V-2.68034H13.2972V-2.45317H13.5244ZM13.5244 38.3037H13.2972V38.5309H13.5244V38.3037ZM24.1154 38.3037V-2.45317H23.6611V38.3037H24.1154ZM23.8883 -2.68034H13.5244V-2.226H23.8883V-2.68034ZM13.2972 -2.45317V38.3037H13.7516V-2.45317H13.2972ZM13.5244 38.5309H23.8883V38.0765H13.5244V38.5309ZM35.1879 -2.45317V-2.68034H34.9607V-2.45317H35.1879ZM35.1879 38.3037H34.9607V38.5309H35.1879V38.3037ZM45.61 38.3037V38.5309H45.8371V38.3037H45.61ZM45.61 25.7273V25.5001H45.3828V25.7273H45.61ZM45.61 17.1101H45.3828V17.3373H45.61V17.1101ZM45.61 6.164V5.93683H45.3828V6.164H45.61ZM34.9607 -2.45317V38.3037H35.415V-2.45317H34.9607ZM35.1879 38.5309H45.61V38.0765H35.1879V38.5309ZM45.8371 38.3037V25.7273H45.3828V38.3037H45.8371ZM45.61 25.9545H59.4673V25.5001H45.61V25.9545ZM59.4673 25.9545C65.2043 25.9545 69.7011 24.6377 72.7681 22.1782C75.8421 19.713 77.4528 16.1212 77.4528 11.6371H76.9985C76.9985 16.003 75.436 19.4563 72.4838 21.8237C69.5246 24.1968 65.1422 25.5001 59.4673 25.5001V25.9545ZM77.4528 11.6371C77.4528 7.15292 75.8421 3.56115 72.7681 1.09595C69.7011 -1.36356 65.2043 -2.68034 59.4673 -2.68034V-2.226C65.1422 -2.226 69.5246 -0.92269 72.4838 1.4504C75.436 3.8178 76.9985 7.27115 76.9985 11.6371H77.4528ZM59.4673 -2.68034H35.1879V-2.226H59.4673V-2.68034ZM45.8371 17.1101V6.164H45.3828V17.1101H45.8371ZM45.61 6.39117H60.2824V5.93683H45.61V6.39117ZM60.2824 6.39117C62.3463 6.39117 63.9172 6.87876 64.9687 7.76425C66.0143 8.64476 66.5764 9.94401 66.5764 11.6371H67.0307C67.0307 9.83668 66.4283 8.39939 65.2614 7.41673C64.1004 6.43905 62.4108 5.93683 60.2824 5.93683V6.39117ZM66.5764 11.6371C66.5764 13.3267 65.9875 14.6268 64.9262 15.5089C63.8589 16.396 62.2866 16.883 60.2824 16.883V17.3373C62.3539 17.3373 64.0422 16.8344 65.2166 15.8583C66.3968 14.8773 67.0307 13.4409 67.0307 11.6371H66.5764ZM60.2824 16.883H45.61V17.3373H60.2824V16.883ZM119.667 13.6749V13.9021H119.895V13.6749H119.667ZM94.2817 13.6749H94.0545V13.9021H94.2817V13.6749ZM94.2817 -2.45317H94.5088V-2.68034H94.2817V-2.45317ZM83.8596 -2.45317V-2.68034H83.6324V-2.45317H83.8596ZM83.8596 38.3037H83.6324V38.5309H83.8596V38.3037ZM94.2817 38.3037V38.5309H94.5088V38.3037H94.2817ZM94.2817 22.2339V22.0067H94.0545V22.2339H94.2817ZM119.667 22.2339H119.895V22.0067H119.667V22.2339ZM119.667 38.3037H119.44V38.5309H119.667V38.3037ZM130.09 38.3037V38.5309H130.317V38.3037H130.09ZM130.09 -2.45317H130.317V-2.68034H130.09V-2.45317ZM119.667 -2.45317V-2.68034H119.44V-2.45317H119.667ZM119.667 13.4477H94.2817V13.9021H119.667V13.4477ZM94.5088 13.6749V-2.45317H94.0545V13.6749H94.5088ZM94.2817 -2.68034H83.8596V-2.226H94.2817V-2.68034ZM83.6324 -2.45317V38.3037H84.0867V-2.45317H83.6324ZM83.8596 38.5309H94.2817V38.0765H83.8596V38.5309ZM94.5088 38.3037V22.2339H94.0545V38.3037H94.5088ZM94.2817 22.461H119.667V22.0067H94.2817V22.461ZM119.44 22.2339V38.3037H119.895V22.2339H119.44ZM119.667 38.5309H130.09V38.0765H119.667V38.5309ZM130.317 38.3037V-2.45317H129.862V38.3037H130.317ZM130.09 -2.68034H119.667V-2.226H130.09V-2.68034ZM119.44 -2.45317V13.6749H119.895V-2.45317H119.44ZM166.205 39.1131C174.421 39.1131 181.286 37.0373 186.102 33.3902C190.923 29.7392 193.681 24.5205 193.681 18.2746H193.227C193.227 24.3722 190.54 29.4592 185.828 33.028C181.11 36.6007 174.35 38.6588 166.205 38.6588V39.1131ZM193.681 18.2746C193.681 11.7991 190.926 6.40592 186.105 2.63714C181.288 -1.12788 174.422 -3.26258 166.205 -3.26258V-2.80824C174.348 -2.80824 181.107 -0.692576 185.825 2.99509C190.538 6.679 193.227 11.9409 193.227 18.2746H193.681ZM166.205 -3.26258C157.987 -3.26258 151.122 -1.12788 146.305 2.63714C141.484 6.40592 138.729 11.7991 138.729 18.2746H139.183C139.183 11.9409 141.872 6.679 146.585 2.99509C151.303 -0.692576 158.061 -2.80824 166.205 -2.80824V-3.26258ZM138.729 18.2746C138.729 24.5205 141.487 29.7392 146.308 33.3902C151.124 37.0373 157.989 39.1131 166.205 39.1131V38.6588C158.06 38.6588 151.3 36.6007 146.582 33.028C141.869 29.4592 139.183 24.3722 139.183 18.2746H138.729ZM166.205 30.6239C160.697 30.6239 156.547 29.5503 153.779 27.4742C151.023 25.4067 149.605 22.3214 149.605 18.2164H149.151C149.151 22.4374 150.616 25.6694 153.507 27.8377C156.386 29.9974 160.65 31.0782 166.205 31.0782V30.6239ZM149.605 18.2164C149.605 13.9331 151.025 10.7014 153.783 8.53328C156.551 6.35763 160.699 5.22669 166.205 5.22669V4.77235C160.648 4.77235 156.383 5.91215 153.503 8.17609C150.613 10.4476 149.151 13.8242 149.151 18.2164H149.605ZM166.205 5.22669C171.71 5.22669 175.859 6.35763 178.626 8.53328C181.384 10.7014 182.804 13.9331 182.804 18.2164H183.259C183.259 13.8242 181.797 10.4476 178.907 8.17609C176.027 5.91215 171.762 4.77235 166.205 4.77235V5.22669ZM182.804 18.2164C182.804 22.3214 181.387 25.4067 178.63 27.4742C175.862 29.5503 171.713 30.6239 166.205 30.6239V31.0782C171.76 31.0782 176.023 29.9974 178.903 27.8377C181.794 25.6694 183.259 22.4374 183.259 18.2164H182.804ZM240.784 29.6283L240.598 29.7591L241.011 30.3455V29.6283H240.784ZM218.193 -2.45317L218.379 -2.58396L218.311 -2.68034H218.193V-2.45317ZM202.298 -2.45317V-2.68034H202.071V-2.45317H202.298ZM202.298 38.3037H202.071V38.5309H202.298V38.3037ZM212.662 38.3037V38.5309H212.889V38.3037H212.662ZM212.662 5.29064L212.849 5.16257L212.435 4.55485V5.29064H212.662ZM235.194 38.3037L235.007 38.4318L235.075 38.5309H235.194V38.3037ZM251.206 38.3037V38.5309H251.433V38.3037H251.206ZM251.206 -2.45317H251.433V-2.68034H251.206V-2.45317ZM240.784 -2.45317V-2.68034H240.557V-2.45317H240.784ZM240.97 29.4975L218.379 -2.58396L218.007 -2.32238L240.598 29.7591L240.97 29.4975ZM218.193 -2.68034H202.298V-2.226H218.193V-2.68034ZM202.071 -2.45317V38.3037H202.525V-2.45317H202.071ZM202.298 38.5309H212.662V38.0765H202.298V38.5309ZM212.889 38.3037V5.29064H212.435V38.3037H212.889ZM212.474 5.4187L235.007 38.4318L235.382 38.1756L212.849 5.16257L212.474 5.4187ZM235.194 38.5309H251.206V38.0765H235.194V38.5309ZM251.433 38.3037V-2.45317H250.979V38.3037H251.433ZM251.206 -2.68034H240.784V-2.226H251.206V-2.68034ZM240.557 -2.45317V29.6283H241.011V-2.45317H240.557ZM272.876 22.1174V21.8902H272.649V22.1174H272.876ZM300.532 22.1174V22.3446H300.76V22.1174H300.532ZM300.532 14.1407H300.76V13.9135H300.532V14.1407ZM272.876 14.1407H272.649V14.3679H272.876V14.1407ZM272.876 6.164V5.93683H272.649V6.164H272.876ZM303.211 6.164V6.39117H303.438V6.164H303.211ZM303.211 -2.45317H303.438V-2.68034H303.211V-2.45317ZM262.512 -2.45317V-2.68034H262.285V-2.45317H262.512ZM262.512 38.3037H262.285V38.5309H262.512V38.3037ZM303.851 38.3037V38.5309H304.078V38.3037H303.851ZM303.851 29.6865H304.078V29.4594H303.851V29.6865ZM272.876 29.6865H272.649V29.9137H272.876V29.6865ZM272.876 22.3446H300.532V21.8902H272.876V22.3446ZM300.76 22.1174V14.1407H300.305V22.1174H300.76ZM300.532 13.9135H272.876V14.3679H300.532V13.9135ZM273.103 14.1407V6.164H272.649V14.1407H273.103ZM272.876 6.39117H303.211V5.93683H272.876V6.39117ZM303.438 6.164V-2.45317H302.984V6.164H303.438ZM303.211 -2.68034H262.512V-2.226H303.211V-2.68034ZM262.285 -2.45317V38.3037H262.739V-2.45317H262.285ZM262.512 38.5309H303.851V38.0765H262.512V38.5309ZM304.078 38.3037V29.6865H303.624V38.3037H304.078ZM303.851 29.4594H272.876V29.9137H303.851V29.4594ZM273.103 29.6865V22.1174H272.649V29.6865H273.103Z" fill="white"/>
</g>
<rect x="38.5081" y="6.354" width="32.9246" height="9.81962" rx="4.90981" fill="black"/>
<circle cx="66.5297" cy="11.2638" r="1.67782" transform="rotate(-180 66.5297 11.2638)" fill="url(#paint0_linear_112_6183)"/>
<circle cx="66.5299" cy="11.2641" r="1.08565" fill="url(#paint1_radial_112_6183)"/>
<g filter="url(#filter1_f_112_6183)">
<path d="M66.4309 10.3761C66.2215 10.3761 66.0207 10.4697 65.8726 10.6362C65.7245 10.8028 65.6414 11.0287 65.6414 11.2643C65.6414 11.4999 65.7245 11.7258 65.8726 11.8924C66.0207 12.059 66.2215 12.1526 66.4309 12.1526L66.4309 11.2643L66.4309 10.3761Z" fill="url(#paint2_linear_112_6183)"/>
</g>
<g filter="url(#filter2_f_112_6183)">
<circle cx="66.3323" cy="10.8691" r="0.296086" fill="#50326D"/>
</g>
<g filter="url(#filter3_f_112_6183)">
<path d="M66.6284 12.1525C66.8378 12.1525 67.0386 12.0589 67.1867 11.8923C67.3348 11.7257 67.418 11.4998 67.418 11.2642C67.418 11.0287 67.3348 10.8027 67.1867 10.6361C67.0386 10.4696 66.8378 10.376 66.6284 10.376L66.6284 11.2642L66.6284 12.1525Z" fill="url(#paint3_linear_112_6183)"/>
</g>
<g filter="url(#filter4_f_112_6183)">
<circle cx="66.727" cy="11.6589" r="0.296086" fill="url(#paint4_linear_112_6183)"/>
</g>
<path d="M18.5549 76.823C18.6352 77.4028 18.7931 77.8362 19.0284 78.1232C19.459 78.6455 20.1966 78.9067 21.2413 78.9067C21.867 78.9067 22.375 78.8378 22.7653 78.7001C23.5058 78.436 23.876 77.9452 23.876 77.2277C23.876 76.8087 23.6924 76.4844 23.325 76.2548C22.9576 76.0309 22.3807 75.8328 21.5943 75.6606L20.2511 75.3593C18.9309 75.0608 18.0182 74.7365 17.513 74.3863C16.6577 73.8008 16.2301 72.8852 16.2301 71.6396C16.2301 70.5031 16.6434 69.5588 17.47 68.8068C18.2966 68.0549 19.5106 67.6789 21.1121 67.6789C22.4496 67.6789 23.589 68.0348 24.5304 68.7466C25.4776 69.4526 25.9741 70.4801 26.02 71.8291H23.4714C23.4254 71.0656 23.0925 70.5232 22.4726 70.2017C22.0593 69.9893 21.5455 69.8831 20.9313 69.8831C20.2482 69.8831 19.7029 70.0209 19.2954 70.2964C18.8878 70.5719 18.684 70.9565 18.684 71.4502C18.684 71.9037 18.8849 72.2423 19.2867 72.4662C19.5451 72.6155 20.0961 72.7905 20.9399 72.9914L23.1269 73.5167C24.0856 73.7463 24.8088 74.0534 25.2967 74.438C26.0545 75.035 26.4333 75.8989 26.4333 77.0297C26.4333 78.1892 25.9884 79.1536 25.0987 79.9227C24.2147 80.6862 22.9634 81.0679 21.3446 81.0679C19.6914 81.0679 18.3913 80.6919 17.4441 79.94C16.497 79.1823 16.0234 78.1433 16.0234 76.823H18.5549ZM34.0104 78.8465C35.0608 78.8465 35.8932 78.459 36.5074 77.6841C37.1273 76.9091 37.4373 75.807 37.4373 74.3777C37.4373 72.9541 37.1273 71.8549 36.5074 71.08C35.8932 70.2993 35.0608 69.909 34.0104 69.909C32.9599 69.909 32.1219 70.2964 31.4962 71.0713C30.8705 71.8463 30.5576 72.9484 30.5576 74.3777C30.5576 75.807 30.8705 76.9091 31.4962 77.6841C32.1219 78.459 32.9599 78.8465 34.0104 78.8465ZM40.0893 74.3777C40.0893 76.6566 39.4492 78.4016 38.1692 79.6128C37.2105 80.6001 35.8243 81.0937 34.0104 81.0937C32.1965 81.0937 30.8102 80.6001 29.8516 79.6128C28.5658 78.4016 27.9229 76.6566 27.9229 74.3777C27.9229 72.0529 28.5658 70.3079 29.8516 69.1426C30.8102 68.1553 32.1965 67.6617 34.0104 67.6617C35.8243 67.6617 37.2105 68.1553 38.1692 69.1426C39.4492 70.3079 40.0893 72.0529 40.0893 74.3777ZM41.5702 74.4982C41.5702 72.2825 42.1643 70.5748 43.3526 69.3751C44.3858 68.3304 45.7003 67.808 47.2961 67.808C49.4314 67.808 50.9928 68.5083 51.9801 69.909C52.5254 70.6954 52.8182 71.4846 52.8584 72.2768H50.2064C50.0342 71.6683 49.8132 71.2091 49.5434 70.8991C49.0612 70.3481 48.3465 70.0725 47.3994 70.0725C46.4351 70.0725 45.6745 70.4629 45.1177 71.2435C44.5609 72.0185 44.2825 73.1177 44.2825 74.5413C44.2825 75.9649 44.5752 77.0325 45.1607 77.7443C45.752 78.4504 46.5011 78.8034 47.408 78.8034C48.3379 78.8034 49.0469 78.4992 49.5348 77.8907C49.8046 77.5635 50.0284 77.0727 50.2064 76.4183H52.8325C52.6029 77.8017 52.0145 78.9268 51.0674 79.7936C50.126 80.6604 48.9177 81.0937 47.4425 81.0937C45.6171 81.0937 44.182 80.5082 43.1373 79.3372C42.0926 78.1605 41.5702 76.5475 41.5702 74.4982ZM57.2927 80.7407H54.6579V68.0491H57.2927V80.7407ZM63.2424 75.9448H66.4626L64.8783 70.9508L63.2424 75.9448ZM63.406 68.0491H66.4024L70.897 80.7407H68.0211L67.2031 78.1318H62.5277L61.6495 80.7407H58.877L63.406 68.0491ZM72.5157 68.0491H75.1677V78.459H81.4532V80.7407H72.5157V68.0491ZM85.2159 76.823C85.2963 77.4028 85.4541 77.8362 85.6895 78.1232C86.12 78.6455 86.8576 78.9067 87.9023 78.9067C88.528 78.9067 89.036 78.8378 89.4263 78.7001C90.1668 78.436 90.5371 77.9452 90.5371 77.2277C90.5371 76.8087 90.3534 76.4844 89.986 76.2548C89.6186 76.0309 89.0417 75.8328 88.2553 75.6606L86.9121 75.3593C85.5919 75.0608 84.6792 74.7365 84.1741 74.3863C83.3188 73.8008 82.8911 72.8852 82.8911 71.6396C82.8911 70.5031 83.3044 69.5588 84.131 68.8068C84.9576 68.0549 86.1716 67.6789 87.7732 67.6789C89.1106 67.6789 90.2501 68.0348 91.1915 68.7466C92.1386 69.4526 92.6351 70.4801 92.681 71.8291H90.1324C90.0865 71.0656 89.7535 70.5232 89.1336 70.2017C88.7203 69.9893 88.2065 69.8831 87.5923 69.8831C86.9093 69.8831 86.3639 70.0209 85.9564 70.2964C85.5488 70.5719 85.3451 70.9565 85.3451 71.4502C85.3451 71.9037 85.546 72.2423 85.9478 72.4662C86.2061 72.6155 86.7571 72.7905 87.601 72.9914L89.788 73.5167C90.7466 73.7463 91.4699 74.0534 91.9578 74.438C92.7155 75.035 93.0943 75.8989 93.0943 77.0297C93.0943 78.1892 92.6495 79.1536 91.7597 79.9227C90.8757 80.6862 89.6244 81.0679 88.0056 81.0679C86.3525 81.0679 85.0523 80.6919 84.1052 79.94C83.158 79.1823 82.6845 78.1433 82.6845 76.823H85.2159Z" fill="white"/>
<path d="M18.5549 56.8379L19.1371 56.7572L19.0668 56.2501H18.5549V56.8379ZM19.0284 58.1381L18.5739 58.5108L18.5748 58.5119L19.0284 58.1381ZM22.7653 58.715L22.9609 59.2693L22.9627 59.2686L22.7653 58.715ZM23.325 56.2696L23.6365 55.7712L23.6309 55.7677L23.325 56.2696ZM21.5943 55.6755L21.4656 56.2491L21.4686 56.2497L21.5943 55.6755ZM20.2511 55.3742L20.1215 55.9475L20.1224 55.9477L20.2511 55.3742ZM17.513 54.4012L17.8479 53.9181L17.8451 53.9162L17.513 54.4012ZM24.5304 48.7615L24.1759 49.2303L24.1791 49.2327L24.5304 48.7615ZM26.02 51.8439V52.4317H26.6282L26.6075 51.8239L26.02 51.8439ZM23.4714 51.8439L22.8846 51.8792L22.9179 52.4317H23.4714V51.8439ZM22.4726 50.2166L22.7431 49.6948L22.7412 49.6938L22.4726 50.2166ZM19.2954 50.3113L18.9661 49.8244L19.2954 50.3113ZM19.2867 52.4811L19.5808 51.9721L19.5728 51.9676L19.2867 52.4811ZM20.9399 53.0063L21.0772 52.4348L21.0761 52.4345L20.9399 53.0063ZM23.1269 53.5316L22.9897 54.1031L22.99 54.1032L23.1269 53.5316ZM25.2967 54.4529L24.9329 54.9145L24.933 54.9146L25.2967 54.4529ZM25.0987 59.9376L25.4829 60.3825L25.4831 60.3823L25.0987 59.9376ZM17.4441 59.9549L17.0769 60.4139L17.0787 60.4152L17.4441 59.9549ZM16.0234 56.8379V56.2501H15.4356V56.8379H16.0234ZM17.9726 56.9186C18.06 57.5492 18.2411 58.1049 18.5739 58.5108L19.483 57.7654C19.3451 57.5973 19.2104 57.2862 19.1371 56.7572L17.9726 56.9186ZM18.5748 58.5119C19.1664 59.2297 20.1172 59.5094 21.2413 59.5094V58.3338C20.276 58.3338 19.7515 58.0912 19.482 57.7642L18.5748 58.5119ZM21.2413 59.5094C21.9031 59.5094 22.4843 59.4375 22.9609 59.2693L22.5697 58.1607C22.2657 58.268 21.8309 58.3338 21.2413 58.3338V59.5094ZM22.9627 59.2686C23.4112 59.1087 23.7964 58.8624 24.0676 58.5028C24.342 58.1391 24.4638 57.707 24.4638 57.2426H23.2882C23.2882 57.4958 23.2249 57.6678 23.1291 57.7948C23.0301 57.9261 22.8599 58.0572 22.5679 58.1613L22.9627 59.2686ZM24.4638 57.2426C24.4638 56.6127 24.1687 56.1038 23.6365 55.7712L23.0135 56.7681C23.216 56.8947 23.2882 57.0344 23.2882 57.2426H24.4638ZM23.6309 55.7677C23.1787 55.4921 22.5247 55.2776 21.72 55.1013L21.4686 56.2497C22.2367 56.4179 22.7366 56.5994 23.0191 56.7716L23.6309 55.7677ZM21.723 55.102L20.3798 54.8006L20.1224 55.9477L21.4656 56.2491L21.723 55.102ZM20.3807 54.8008C19.0668 54.5038 18.2523 54.1984 17.8479 53.9181L17.1782 54.8843C17.7841 55.3043 18.7949 55.6476 20.1215 55.9475L20.3807 54.8008ZM17.8451 53.9162C17.1835 53.4633 16.8179 52.7509 16.8179 51.6545H15.6423C15.6423 53.0494 16.132 54.1681 17.181 54.8862L17.8451 53.9162ZM16.8179 51.6545C16.8179 50.6803 17.1637 49.8949 17.8655 49.2565L17.0744 48.3869C16.123 49.2524 15.6423 50.3556 15.6423 51.6545H16.8179ZM17.8655 49.2565C18.545 48.6384 19.594 48.2816 21.1121 48.2816V47.106C19.4272 47.106 18.0481 47.5011 17.0744 48.3869L17.8655 49.2565ZM21.1121 48.2816C22.3395 48.2816 23.35 48.6058 24.1759 49.2303L24.8849 48.2926C23.8281 47.4935 22.5597 47.106 21.1121 47.106V48.2816ZM24.1791 49.2327C24.9615 49.816 25.3917 50.6648 25.4326 51.8639L26.6075 51.8239C26.5564 50.3252 25.9936 49.119 24.8817 48.2902L24.1791 49.2327ZM26.02 51.2561H23.4714V52.4317H26.02V51.2561ZM24.0581 51.8087C24.0012 50.8624 23.5669 50.1219 22.7431 49.6948L22.202 50.7384C22.6181 50.9542 22.8497 51.2986 22.8846 51.8792L24.0581 51.8087ZM22.7412 49.6938C22.2225 49.4272 21.6101 49.3102 20.9313 49.3102V50.4858C21.481 50.4858 21.8961 50.5812 22.2039 50.7394L22.7412 49.6938ZM20.9313 49.3102C20.175 49.3102 19.502 49.4621 18.9661 49.8244L19.6246 50.7983C19.9039 50.6094 20.3215 50.4858 20.9313 50.4858V49.3102ZM18.9661 49.8244C18.3962 50.2097 18.0962 50.7771 18.0962 51.4651H19.2718C19.2718 51.1658 19.3794 50.964 19.6246 50.7983L18.9661 49.8244ZM18.0962 51.4651C18.0962 51.7811 18.1671 52.086 18.3292 52.3591C18.4909 52.6318 18.7244 52.8407 19.0007 52.9946L19.5728 51.9676C19.4473 51.8977 19.3794 51.8253 19.3402 51.7593C19.3014 51.6938 19.2718 51.6025 19.2718 51.4651H18.0962ZM18.9927 52.9901C19.3372 53.1891 19.9728 53.3803 20.8038 53.5781L21.0761 52.4345C20.2195 52.2306 19.7529 52.0716 19.5808 51.9722L18.9927 52.9901ZM20.8027 53.5779L22.9897 54.1031L23.2642 52.96L21.0772 52.4348L20.8027 53.5779ZM22.99 54.1032C23.9092 54.3233 24.5396 54.6045 24.9329 54.9145L25.6606 53.9912C25.0781 53.5321 24.262 53.199 23.2639 52.9599L22.99 54.1032ZM24.933 54.9146C25.5239 55.3802 25.8455 56.059 25.8455 57.0446H27.0211C27.0211 55.7685 26.585 54.7195 25.6605 53.9912L24.933 54.9146ZM25.8455 57.0446C25.8455 58.0306 25.477 58.8336 24.7143 59.493L25.4831 60.3823C26.4999 59.5033 27.0211 58.3776 27.0211 57.0446H25.8455ZM24.7145 59.4928C23.9722 60.1338 22.8766 60.495 21.3446 60.495V61.6706C23.0501 61.6706 24.4572 61.2683 25.4829 60.3825L24.7145 59.4928ZM21.3446 60.495C19.7759 60.495 18.6204 60.1382 17.8096 59.4945L17.0787 60.4152C18.1621 61.2754 19.607 61.6706 21.3446 61.6706V60.495ZM17.8113 59.4959C17.0172 58.8605 16.6112 57.9977 16.6112 56.8379H15.4356C15.4356 58.3187 15.9768 59.5338 17.0769 60.4138L17.8113 59.4959ZM16.0234 57.4257H18.5549V56.2501H16.0234V57.4257ZM36.5074 57.699L36.0484 57.3318L36.0467 57.3338L36.5074 57.699ZM36.5074 51.0948L36.0454 51.4583L36.0484 51.462L36.5074 51.0948ZM38.1692 59.6277L37.7652 59.2007L37.7561 59.2093L37.7474 59.2182L38.1692 59.6277ZM29.8516 59.6277L30.2733 59.2182L30.2642 59.2088L30.2546 59.1998L29.8516 59.6277ZM29.8516 49.1575L30.2463 49.5931L30.2602 49.5805L30.2733 49.567L29.8516 49.1575ZM38.1692 49.1575L37.7474 49.567L37.7601 49.58L37.7735 49.5922L38.1692 49.1575ZM34.0104 59.4491C35.2274 59.4491 36.2345 58.9895 36.968 58.0641L36.0467 57.3338C35.5518 57.9583 34.8943 58.2735 34.0104 58.2735V59.4491ZM36.9664 58.0661C37.6995 57.1497 38.0251 55.8982 38.0251 54.3926H36.8495C36.8495 55.7456 36.5551 56.6983 36.0484 57.3318L36.9664 58.0661ZM38.0251 54.3926C38.0251 52.8921 37.6992 51.6437 36.9664 50.7277L36.0484 51.462C36.5554 52.0958 36.8495 53.046 36.8495 54.3926H38.0251ZM36.9693 50.7314C36.2365 49.7999 35.2291 49.336 34.0104 49.336V50.5116C34.8926 50.5116 35.5499 50.8284 36.0454 51.4583L36.9693 50.7314ZM34.0104 49.336C32.7935 49.336 31.783 49.7954 31.0388 50.717L31.9535 51.4555C32.4607 50.8273 33.1264 50.5116 34.0104 50.5116V49.336ZM31.0388 50.717C30.2988 51.6336 29.9698 52.8859 29.9698 54.3926H31.1454C31.1454 53.0406 31.4422 52.0888 31.9535 51.4555L31.0388 50.717ZM29.9698 54.3926C29.9698 55.8992 30.2988 57.1516 31.0388 58.0682L31.9535 57.3297C31.4422 56.6964 31.1454 55.7446 31.1454 54.3926H29.9698ZM31.0388 58.0682C31.783 58.9898 32.7935 59.4491 34.0104 59.4491V58.2735C33.1264 58.2735 32.4607 57.9579 31.9535 57.3297L31.0388 58.0682ZM39.5015 54.3926C39.5015 56.5598 38.896 58.1307 37.7652 59.2007L38.5731 60.0546C40.0024 58.7023 40.6771 56.7831 40.6771 54.3926H39.5015ZM37.7474 59.2182C36.9315 60.0586 35.7181 60.5208 34.0104 60.5208V61.6964C35.9305 61.6964 37.4896 61.1714 38.5909 60.0371L37.7474 59.2182ZM34.0104 60.5208C32.3027 60.5208 31.0893 60.0586 30.2733 59.2182L29.4299 60.0371C30.5312 61.1714 32.0903 61.6964 34.0104 61.6964V60.5208ZM30.2546 59.1998C29.1185 58.1296 28.5107 56.559 28.5107 54.3926H27.3351C27.3351 56.7839 28.0131 58.7033 29.4486 60.0555L30.2546 59.1998ZM28.5107 54.3926C28.5107 52.1747 29.1213 50.6126 30.2463 49.5931L29.4569 48.722C28.0103 50.033 27.3351 51.9609 27.3351 54.3926H28.5107ZM30.2733 49.567C31.0893 48.7266 32.3027 48.2644 34.0104 48.2644V47.0888C32.0903 47.0888 30.5312 47.6138 29.4299 48.7481L30.2733 49.567ZM34.0104 48.2644C35.7181 48.2644 36.9315 48.7266 37.7474 49.567L38.5909 48.7481C37.4896 47.6138 35.9305 47.0888 34.0104 47.0888V48.2644ZM37.7735 49.5922C38.8933 50.6115 39.5015 52.1739 39.5015 54.3926H40.6771C40.6771 51.9617 40.0052 50.034 38.5648 48.7229L37.7735 49.5922ZM43.3526 49.39L43.7702 49.8036L43.7705 49.8033L43.3526 49.39ZM51.9801 49.9238L52.4631 49.5889L52.4605 49.5852L51.9801 49.9238ZM52.8584 52.2917V52.8795H53.4767L53.4454 52.2619L52.8584 52.2917ZM50.2064 52.2917L49.6408 52.4517L49.7618 52.8795H50.2064V52.2917ZM49.5434 50.914L49.9868 50.5281L49.9857 50.527L49.5434 50.914ZM45.1177 51.2584L45.595 51.6014L45.5962 51.5998L45.1177 51.2584ZM45.1607 57.7592L44.7068 58.1327L44.7101 58.1366L45.1607 57.7592ZM49.5348 57.9056L49.0812 57.5316L49.0762 57.5379L49.5348 57.9056ZM50.2064 56.4332V55.8454H49.7571L49.6392 56.279L50.2064 56.4332ZM52.8325 56.4332L53.4124 56.5295L53.5259 55.8454H52.8325V56.4332ZM51.0674 59.8085L50.6706 59.3749L50.6693 59.3761L51.0674 59.8085ZM43.1373 59.3521L42.6977 59.7424L42.6987 59.7434L43.1373 59.3521ZM42.158 54.5131C42.158 52.4022 42.7218 50.8621 43.7702 49.8036L42.9349 48.9764C41.6069 50.3173 40.9824 52.1927 40.9824 54.5131H42.158ZM43.7705 49.8033C44.6832 48.8804 45.8424 48.4107 47.2961 48.4107V47.2351C45.5582 47.2351 44.0884 47.8101 42.9346 48.9767L43.7705 49.8033ZM47.2961 48.4107C49.2931 48.4107 50.6497 49.0568 51.4997 50.2625L52.4605 49.5852C51.3358 47.9897 49.5697 47.2351 47.2961 47.2351V48.4107ZM51.4971 50.2588C51.9929 50.9739 52.2377 51.6594 52.2713 52.3215L53.4454 52.2619C53.3986 51.3396 53.0579 50.4466 52.4631 49.5889L51.4971 50.2588ZM52.8584 51.7039H50.2064V52.8795H52.8584V51.7039ZM50.772 52.1316C50.5876 51.4803 50.3358 50.9291 49.9868 50.5281L49.1 51.2999C49.2905 51.5189 49.4807 51.8861 49.6408 52.4517L50.772 52.1316ZM49.9857 50.527C49.3612 49.8132 48.463 49.4996 47.3994 49.4996V50.6752C48.2301 50.6752 48.7612 50.9127 49.101 51.3011L49.9857 50.527ZM47.3994 49.4996C46.2464 49.4996 45.307 49.9807 44.6391 50.9171L45.5962 51.5998C46.042 50.9748 46.6237 50.6752 47.3994 50.6752V49.4996ZM44.6403 50.9155C43.9842 51.8286 43.6947 53.0669 43.6947 54.5562H44.8703C44.8703 53.1983 45.1375 52.2382 45.595 51.6014L44.6403 50.9155ZM43.6947 54.5562C43.6947 56.0455 43.9986 57.2717 44.7068 58.1326L45.6147 57.3858C45.1518 56.8232 44.8703 55.914 44.8703 54.5562H43.6947ZM44.7101 58.1366C45.411 58.9736 46.324 59.4061 47.408 59.4061V58.2305C46.6781 58.2305 46.0929 57.9569 45.6114 57.3818L44.7101 58.1366ZM47.408 59.4061C48.4781 59.4061 49.372 59.0482 49.9933 58.2733L49.0762 57.5379C48.7217 57.9799 48.1978 58.2305 47.408 58.2305V59.4061ZM49.9883 58.2795C50.3335 57.8609 50.5854 57.2796 50.7736 56.5875L49.6392 56.279C49.4715 56.8957 49.2756 57.2959 49.0813 57.5317L49.9883 58.2795ZM50.2064 57.021H52.8325V55.8454H50.2064V57.021ZM52.2527 56.337C52.0425 57.6033 51.5116 58.6052 50.6706 59.3749L51.4642 60.2421C52.5175 59.2782 53.1633 58.0299 53.4124 56.5295L52.2527 56.337ZM50.6693 59.3761C49.8529 60.1277 48.7943 60.5208 47.4425 60.5208V61.6964C49.0411 61.6964 50.3991 61.2228 51.4655 60.2409L50.6693 59.3761ZM47.4425 60.5208C45.7545 60.5208 44.4905 59.986 43.5759 58.9608L42.6987 59.7434C43.8735 61.0603 45.4797 61.6964 47.4425 61.6964V60.5208ZM43.5769 58.9619C42.6536 57.9219 42.158 56.4631 42.158 54.5131H40.9824C40.9824 56.6617 41.5316 58.4289 42.6977 59.7424L43.5769 58.9619ZM57.2927 60.7556V61.3434H57.8805V60.7556H57.2927ZM54.6579 60.7556H54.0701V61.3434H54.6579V60.7556ZM54.6579 48.064V47.4762H54.0701V48.064H54.6579ZM57.2927 48.064H57.8805V47.4762H57.2927V48.064ZM57.2927 60.1678H54.6579V61.3434H57.2927V60.1678ZM55.2457 60.7556V48.064H54.0701V60.7556H55.2457ZM54.6579 48.6518H57.2927V47.4762H54.6579V48.6518ZM56.7049 48.064V60.7556H57.8805V48.064H56.7049ZM63.2424 55.9597L62.6838 55.7767L62.4313 56.5475H63.2424V55.9597ZM66.4626 55.9597V56.5475H67.2658L67.0229 55.7819L66.4626 55.9597ZM64.8783 50.9657L65.4386 50.7879L64.8873 49.0501L64.3198 50.7827L64.8783 50.9657ZM63.406 48.064V47.4762H62.9916L62.8524 47.8665L63.406 48.064ZM66.4024 48.064L66.9564 47.8678L66.8178 47.4762H66.4024V48.064ZM70.897 60.7556V61.3434H71.7287L71.451 60.5594L70.897 60.7556ZM68.0211 60.7556L67.4602 60.9315L67.5894 61.3434H68.0211V60.7556ZM67.2031 58.1467L67.764 57.9708L67.6348 57.5589H67.2031V58.1467ZM62.5277 58.1467V57.5589H62.1054L61.9707 57.9592L62.5277 58.1467ZM61.6495 60.7556V61.3434H62.0718L62.2066 60.9431L61.6495 60.7556ZM58.877 60.7556L58.3234 60.5581L58.0431 61.3434H58.877V60.7556ZM63.2424 56.5475H66.4626V55.3719H63.2424V56.5475ZM67.0229 55.7819L65.4386 50.7879L64.3181 51.1434L65.9024 56.1374L67.0229 55.7819ZM64.3198 50.7827L62.6838 55.7767L63.801 56.1427L65.4369 51.1487L64.3198 50.7827ZM63.406 48.6518H66.4024V47.4762H63.406V48.6518ZM65.8483 48.2602L70.3429 60.9518L71.451 60.5594L66.9564 47.8678L65.8483 48.2602ZM70.897 60.1678H68.0211V61.3434H70.897V60.1678ZM68.582 60.5798L67.764 57.9708L66.6423 58.3225L67.4602 60.9315L68.582 60.5798ZM67.2031 57.5589H62.5277V58.7345H67.2031V57.5589ZM61.9707 57.9592L61.0924 60.5681L62.2066 60.9431L63.0848 58.3342L61.9707 57.9592ZM61.6495 60.1678H58.877V61.3434H61.6495V60.1678ZM59.4306 60.9532L63.9596 48.2616L62.8524 47.8665L58.3234 60.5581L59.4306 60.9532ZM72.5157 48.064V47.4762H71.9279V48.064H72.5157ZM75.1677 48.064H75.7555V47.4762H75.1677V48.064ZM75.1677 58.4739H74.5799V59.0617H75.1677V58.4739ZM81.4532 58.4739H82.041V57.8861H81.4532V58.4739ZM81.4532 60.7556V61.3434H82.041V60.7556H81.4532ZM72.5157 60.7556H71.9279V61.3434H72.5157V60.7556ZM72.5157 48.6518H75.1677V47.4762H72.5157V48.6518ZM74.5799 48.064V58.4739H75.7555V48.064H74.5799ZM75.1677 59.0617H81.4532V57.8861H75.1677V59.0617ZM80.8654 58.4739V60.7556H82.041V58.4739H80.8654ZM81.4532 60.1678H72.5157V61.3434H81.4532V60.1678ZM73.1035 60.7556V48.064H71.9279V60.7556H73.1035ZM85.2159 56.8379L85.7981 56.7572L85.7278 56.2501H85.2159V56.8379ZM85.6895 58.1381L85.2349 58.5108L85.2359 58.5119L85.6895 58.1381ZM89.4263 58.715L89.622 59.2693L89.6238 59.2686L89.4263 58.715ZM89.986 56.2696L90.2976 55.7712L90.2919 55.7677L89.986 56.2696ZM88.2553 55.6755L88.1267 56.2491L88.1296 56.2497L88.2553 55.6755ZM86.9121 55.3742L86.7825 55.9475L86.7835 55.9477L86.9121 55.3742ZM84.1741 54.4012L84.5089 53.9181L84.5061 53.9162L84.1741 54.4012ZM91.1915 48.7615L90.8369 49.2303L90.8401 49.2327L91.1915 48.7615ZM92.681 51.8439V52.4317H93.2892L93.2685 51.8239L92.681 51.8439ZM90.1324 51.8439L89.5456 51.8792L89.5789 52.4317H90.1324V51.8439ZM89.1336 50.2166L89.4042 49.6948L89.4023 49.6938L89.1336 50.2166ZM85.9564 50.3113L85.6272 49.8244L85.9564 50.3113ZM85.9478 52.4811L86.2419 51.9721L86.2339 51.9676L85.9478 52.4811ZM87.601 53.0063L87.7382 52.4348L87.7371 52.4345L87.601 53.0063ZM89.788 53.5316L89.6507 54.1031L89.6511 54.1032L89.788 53.5316ZM91.9578 54.4529L91.5939 54.9145L91.594 54.9146L91.9578 54.4529ZM91.7597 59.9376L92.1439 60.3825L92.1442 60.3823L91.7597 59.9376ZM84.1052 59.9549L83.738 60.4139L83.7397 60.4152L84.1052 59.9549ZM82.6845 56.8379V56.2501H82.0967V56.8379H82.6845ZM84.6337 56.9186C84.7211 57.5492 84.9021 58.1049 85.2349 58.5108L86.144 57.7654C86.0061 57.5973 85.8714 57.2862 85.7981 56.7572L84.6337 56.9186ZM85.2359 58.5119C85.8274 59.2297 86.7782 59.5094 87.9023 59.5094V58.3338C86.937 58.3338 86.4125 58.0912 86.1431 57.7642L85.2359 58.5119ZM87.9023 59.5094C88.5641 59.5094 89.1453 59.4375 89.622 59.2693L89.2307 58.1607C88.9267 58.268 88.4919 58.3338 87.9023 58.3338V59.5094ZM89.6238 59.2686C90.0722 59.1087 90.4574 58.8624 90.7286 58.5028C91.003 58.1391 91.1249 57.707 91.1249 57.2426H89.9493C89.9493 57.4958 89.886 57.6678 89.7901 57.7948C89.6911 57.9261 89.5209 58.0572 89.2289 58.1613L89.6238 59.2686ZM91.1249 57.2426C91.1249 56.6127 90.8297 56.1038 90.2975 55.7712L89.6745 56.7681C89.8771 56.8947 89.9493 57.0344 89.9493 57.2426H91.1249ZM90.2919 55.7677C89.8397 55.4921 89.1858 55.2776 88.3811 55.1013L88.1296 56.2497C88.8977 56.4179 89.3976 56.5994 89.6801 56.7716L90.2919 55.7677ZM88.384 55.102L87.0408 54.8006L86.7835 55.9477L88.1267 56.2491L88.384 55.102ZM87.0418 54.8008C85.7278 54.5038 84.9133 54.1984 84.5089 53.9181L83.8392 54.8843C84.4451 55.3043 85.456 55.6476 86.7825 55.9475L87.0418 54.8008ZM84.5061 53.9162C83.8445 53.4633 83.4789 52.7509 83.4789 51.6545H82.3033C82.3033 53.0494 82.793 54.1681 83.842 54.8862L84.5061 53.9162ZM83.4789 51.6545C83.4789 50.6803 83.8248 49.8949 84.5265 49.2565L83.7355 48.3869C82.784 49.2524 82.3033 50.3556 82.3033 51.6545H83.4789ZM84.5265 49.2565C85.206 48.6384 86.2551 48.2816 87.7732 48.2816V47.106C86.0882 47.106 84.7092 47.5011 83.7355 48.3869L84.5265 49.2565ZM87.7732 48.2816C89.0005 48.2816 90.011 48.6058 90.8369 49.2303L91.546 48.2926C90.4891 47.4935 89.2207 47.106 87.7732 47.106V48.2816ZM90.8401 49.2327C91.6226 49.816 92.0528 50.6648 92.0936 51.8639L93.2685 51.8239C93.2175 50.3252 92.6546 49.119 91.5428 48.2902L90.8401 49.2327ZM92.681 51.2561H90.1324V52.4317H92.681V51.2561ZM90.7191 51.8087C90.6622 50.8624 90.2279 50.1219 89.4042 49.6948L88.863 50.7384C89.2791 50.9542 89.5107 51.2986 89.5456 51.8792L90.7191 51.8087ZM89.4023 49.6938C88.8835 49.4272 88.2711 49.3102 87.5923 49.3102V50.4858C88.142 50.4858 88.5571 50.5812 88.8649 50.7394L89.4023 49.6938ZM87.5923 49.3102C86.836 49.3102 86.163 49.4621 85.6272 49.8244L86.2856 50.7983C86.5649 50.6094 86.9825 50.4858 87.5923 50.4858V49.3102ZM85.6272 49.8244C85.0572 50.2097 84.7573 50.7771 84.7573 51.4651H85.9329C85.9329 51.1658 86.0404 50.964 86.2856 50.7983L85.6272 49.8244ZM84.7573 51.4651C84.7573 51.7811 84.8282 52.086 84.9902 52.3591C85.152 52.6318 85.3855 52.8407 85.6617 52.9946L86.2339 51.9676C86.1083 51.8977 86.0404 51.8253 86.0013 51.7593C85.9624 51.6938 85.9329 51.6025 85.9329 51.4651H84.7573ZM85.6537 52.9901C85.9982 53.1891 86.6338 53.3803 87.4648 53.5781L87.7371 52.4345C86.8805 52.2306 86.4139 52.0716 86.2418 51.9722L85.6537 52.9901ZM87.4637 53.5779L89.6507 54.1031L89.9252 52.96L87.7382 52.4348L87.4637 53.5779ZM89.6511 54.1032C90.5702 54.3233 91.2006 54.6045 91.5939 54.9145L92.3216 53.9912C91.7391 53.5321 90.923 53.199 89.9249 52.9599L89.6511 54.1032ZM91.594 54.9146C92.185 55.3802 92.5065 56.059 92.5065 57.0446H93.6821C93.6821 55.7685 93.246 54.7195 92.3215 53.9912L91.594 54.9146ZM92.5065 57.0446C92.5065 58.0306 92.138 58.8336 91.3753 59.493L92.1442 60.3823C93.1609 59.5033 93.6821 58.3776 93.6821 57.0446H92.5065ZM91.3755 59.4928C90.6333 60.1338 89.5376 60.495 88.0056 60.495V61.6706C89.7112 61.6706 91.1182 61.2683 92.1439 60.3825L91.3755 59.4928ZM88.0056 60.495C86.4369 60.495 85.2815 60.1382 84.4707 59.4945L83.7397 60.4152C84.8231 61.2754 86.268 61.6706 88.0056 61.6706V60.495ZM84.4724 59.4959C83.6782 58.8605 83.2723 57.9977 83.2723 56.8379H82.0967C82.0967 58.3187 82.6379 59.5338 83.738 60.4138L84.4724 59.4959ZM82.6845 57.4257H85.2159V56.2501H82.6845V57.4257Z" fill="#FF94E1"/>
<path d="M18.5549 96.8081L19.1371 96.7274L19.0668 96.2203H18.5549V96.8081ZM19.0284 98.1083L18.5739 98.481L18.5748 98.4821L19.0284 98.1083ZM22.7653 98.6852L22.9609 99.2395L22.9627 99.2388L22.7653 98.6852ZM23.325 96.2399L23.6365 95.7414L23.6309 95.7379L23.325 96.2399ZM21.5943 95.6457L21.4656 96.2193L21.4686 96.2199L21.5943 95.6457ZM20.2511 95.3444L20.1215 95.9177L20.1224 95.9179L20.2511 95.3444ZM17.513 94.3714L17.8479 93.8883L17.8451 93.8864L17.513 94.3714ZM24.5304 88.7317L24.1759 89.2005L24.1791 89.2029L24.5304 88.7317ZM26.02 91.8142V92.402H26.6282L26.6075 91.7942L26.02 91.8142ZM23.4714 91.8142L22.8846 91.8495L22.9179 92.402H23.4714V91.8142ZM22.4726 90.1868L22.7431 89.665L22.7412 89.664L22.4726 90.1868ZM19.2954 90.2815L18.9661 89.7946L19.2954 90.2815ZM19.2867 92.4513L19.5808 91.9423L19.5728 91.9378L19.2867 92.4513ZM20.9399 92.9766L21.0772 92.405L21.0761 92.4047L20.9399 92.9766ZM23.1269 93.5018L22.9897 94.0733L22.99 94.0734L23.1269 93.5018ZM25.2967 94.4231L24.9329 94.8847L24.933 94.8848L25.2967 94.4231ZM25.0987 99.9079L25.4829 100.353L25.4831 100.353L25.0987 99.9079ZM17.4441 99.9251L17.0769 100.384L17.0787 100.385L17.4441 99.9251ZM16.0234 96.8081V96.2203H15.4356V96.8081H16.0234ZM17.9726 96.8888C18.06 97.5194 18.2411 98.0751 18.5739 98.481L19.483 97.7356C19.3451 97.5675 19.2104 97.2564 19.1371 96.7274L17.9726 96.8888ZM18.5748 98.4821C19.1664 99.1999 20.1172 99.4796 21.2413 99.4796V98.304C20.276 98.304 19.7515 98.0614 19.482 97.7345L18.5748 98.4821ZM21.2413 99.4796C21.9031 99.4796 22.4843 99.4077 22.9609 99.2395L22.5697 98.1309C22.2657 98.2382 21.8309 98.304 21.2413 98.304V99.4796ZM22.9627 99.2388C23.4112 99.0789 23.7964 98.8326 24.0676 98.4731C24.342 98.1093 24.4638 97.6772 24.4638 97.2128H23.2882C23.2882 97.466 23.2249 97.638 23.1291 97.7651C23.0301 97.8963 22.8599 98.0274 22.5679 98.1315L22.9627 99.2388ZM24.4638 97.2128C24.4638 96.5829 24.1687 96.074 23.6365 95.7414L23.0135 96.7383C23.216 96.8649 23.2882 97.0047 23.2882 97.2128H24.4638ZM23.6309 95.7379C23.1787 95.4624 22.5247 95.2478 21.72 95.0716L21.4686 96.2199C22.2367 96.3881 22.7366 96.5696 23.0191 96.7418L23.6309 95.7379ZM21.723 95.0722L20.3798 94.7708L20.1224 95.9179L21.4656 96.2193L21.723 95.0722ZM20.3807 94.7711C19.0668 94.474 18.2523 94.1686 17.8479 93.8883L17.1782 94.8545C17.7841 95.2745 18.7949 95.6178 20.1215 95.9177L20.3807 94.7711ZM17.8451 93.8864C17.1835 93.4335 16.8179 92.7211 16.8179 91.6247H15.6423C15.6423 93.0196 16.132 94.1383 17.181 94.8565L17.8451 93.8864ZM16.8179 91.6247C16.8179 90.6505 17.1637 89.8652 17.8655 89.2267L17.0744 88.3571C16.123 89.2227 15.6423 90.3259 15.6423 91.6247H16.8179ZM17.8655 89.2267C18.545 88.6086 19.594 88.2518 21.1121 88.2518V87.0762C19.4272 87.0762 18.0481 87.4713 17.0744 88.3571L17.8655 89.2267ZM21.1121 88.2518C22.3395 88.2518 23.35 88.576 24.1759 89.2005L24.8849 88.2628C23.8281 87.4637 22.5597 87.0762 21.1121 87.0762V88.2518ZM24.1791 89.2029C24.9615 89.7862 25.3917 90.635 25.4326 91.8342L26.6075 91.7942C26.5564 90.2954 25.9936 89.0892 24.8817 88.2604L24.1791 89.2029ZM26.02 91.2264H23.4714V92.402H26.02V91.2264ZM24.0581 91.7789C24.0012 90.8326 23.5669 90.0921 22.7431 89.665L22.202 90.7086C22.6181 90.9244 22.8497 91.2688 22.8846 91.8495L24.0581 91.7789ZM22.7412 89.664C22.2225 89.3974 21.6101 89.2804 20.9313 89.2804V90.456C21.481 90.456 21.8961 90.5514 22.2039 90.7096L22.7412 89.664ZM20.9313 89.2804C20.175 89.2804 19.502 89.4323 18.9661 89.7946L19.6246 90.7685C19.9039 90.5797 20.3215 90.456 20.9313 90.456V89.2804ZM18.9661 89.7946C18.3962 90.1799 18.0962 90.7473 18.0962 91.4353H19.2718C19.2718 91.136 19.3794 90.9342 19.6246 90.7685L18.9661 89.7946ZM18.0962 91.4353C18.0962 91.7513 18.1671 92.0562 18.3292 92.3293C18.4909 92.602 18.7244 92.8109 19.0007 92.9648L19.5728 91.9378C19.4473 91.8679 19.3794 91.7955 19.3402 91.7295C19.3014 91.664 19.2718 91.5728 19.2718 91.4353H18.0962ZM18.9927 92.9603C19.3372 93.1593 19.9728 93.3505 20.8038 93.5484L21.0761 92.4047C20.2195 92.2008 19.7529 92.0418 19.5808 91.9424L18.9927 92.9603ZM20.8027 93.5481L22.9897 94.0733L23.2642 92.9302L21.0772 92.405L20.8027 93.5481ZM22.99 94.0734C23.9092 94.2936 24.5396 94.5747 24.9329 94.8847L25.6606 93.9615C25.0781 93.5023 24.262 93.1692 23.2639 92.9302L22.99 94.0734ZM24.933 94.8848C25.5239 95.3504 25.8455 96.0292 25.8455 97.0148H27.0211C27.0211 95.7387 26.585 94.6897 25.6605 93.9614L24.933 94.8848ZM25.8455 97.0148C25.8455 98.0008 25.477 98.8038 24.7143 99.4632L25.4831 100.353C26.4999 99.4735 27.0211 98.3478 27.0211 97.0148H25.8455ZM24.7145 99.463C23.9722 100.104 22.8766 100.465 21.3446 100.465V101.641C23.0501 101.641 24.4572 101.239 25.4829 100.353L24.7145 99.463ZM21.3446 100.465C19.7759 100.465 18.6204 100.108 17.8096 99.4647L17.0787 100.385C18.1621 101.246 19.607 101.641 21.3446 101.641V100.465ZM17.8113 99.4661C17.0172 98.8307 16.6112 97.9679 16.6112 96.8081H15.4356C15.4356 98.2889 15.9768 99.504 17.0769 100.384L17.8113 99.4661ZM16.0234 97.3959H18.5549V96.2203H16.0234V97.3959ZM36.5074 97.6692L36.0484 97.302L36.0467 97.3041L36.5074 97.6692ZM36.5074 91.0651L36.0454 91.4285L36.0484 91.4323L36.5074 91.0651ZM38.1692 99.5979L37.7652 99.1709L37.7561 99.1795L37.7474 99.1884L38.1692 99.5979ZM29.8516 99.5979L30.2733 99.1884L30.2642 99.179L30.2546 99.17L29.8516 99.5979ZM29.8516 89.1277L30.2463 89.5633L30.2602 89.5507L30.2733 89.5372L29.8516 89.1277ZM38.1692 89.1277L37.7474 89.5372L37.7601 89.5502L37.7735 89.5624L38.1692 89.1277ZM34.0104 99.4194C35.2274 99.4194 36.2345 98.9597 36.968 98.0343L36.0467 97.3041C35.5518 97.9285 34.8943 98.2438 34.0104 98.2438V99.4194ZM36.9664 98.0364C37.6995 97.1199 38.0251 95.8684 38.0251 94.3628H36.8495C36.8495 95.7158 36.5551 96.6685 36.0484 97.302L36.9664 98.0364ZM38.0251 94.3628C38.0251 92.8623 37.6992 91.6139 36.9664 90.6979L36.0484 91.4323C36.5554 92.066 36.8495 93.0162 36.8495 94.3628H38.0251ZM36.9693 90.7016C36.2365 89.7701 35.2291 89.3063 34.0104 89.3063V90.4819C34.8926 90.4819 35.5499 90.7987 36.0454 91.4285L36.9693 90.7016ZM34.0104 89.3063C32.7935 89.3063 31.783 89.7656 31.0388 90.6872L31.9535 91.4257C32.4607 90.7975 33.1264 90.4819 34.0104 90.4819V89.3063ZM31.0388 90.6872C30.2988 91.6038 29.9698 92.8562 29.9698 94.3628H31.1454C31.1454 93.0108 31.4422 92.059 31.9535 91.4257L31.0388 90.6872ZM29.9698 94.3628C29.9698 95.8695 30.2988 97.1218 31.0388 98.0384L31.9535 97.2999C31.4422 96.6666 31.1454 95.7148 31.1454 94.3628H29.9698ZM31.0388 98.0384C31.783 98.96 32.7935 99.4194 34.0104 99.4194V98.2438C33.1264 98.2438 32.4607 97.9282 31.9535 97.2999L31.0388 98.0384ZM39.5015 94.3628C39.5015 96.53 38.896 98.1009 37.7652 99.1709L38.5731 100.025C40.0024 98.6725 40.6771 96.7533 40.6771 94.3628H39.5015ZM37.7474 99.1884C36.9315 100.029 35.7181 100.491 34.0104 100.491V101.667C35.9305 101.667 37.4896 101.142 38.5909 100.007L37.7474 99.1884ZM34.0104 100.491C32.3027 100.491 31.0893 100.029 30.2733 99.1884L29.4299 100.007C30.5312 101.142 32.0903 101.667 34.0104 101.667V100.491ZM30.2546 99.17C29.1185 98.0998 28.5107 96.5293 28.5107 94.3628H27.3351C27.3351 96.7541 28.0131 98.6735 29.4486 100.026L30.2546 99.17ZM28.5107 94.3628C28.5107 92.1449 29.1213 90.5828 30.2463 89.5633L29.4569 88.6922C28.0103 90.0032 27.3351 91.9312 27.3351 94.3628H28.5107ZM30.2733 89.5372C31.0893 88.6968 32.3027 88.2346 34.0104 88.2346V87.059C32.0903 87.059 30.5312 87.584 29.4299 88.7183L30.2733 89.5372ZM34.0104 88.2346C35.7181 88.2346 36.9315 88.6968 37.7474 89.5372L38.5909 88.7183C37.4896 87.584 35.9305 87.059 34.0104 87.059V88.2346ZM37.7735 89.5624C38.8933 90.5818 39.5015 92.1441 39.5015 94.3628H40.6771C40.6771 91.9319 40.0052 90.0042 38.5648 88.6931L37.7735 89.5624ZM43.3526 89.3602L43.7702 89.7739L43.7705 89.7736L43.3526 89.3602ZM51.9801 89.8941L52.4631 89.5591L52.4605 89.5554L51.9801 89.8941ZM52.8584 92.2619V92.8497H53.4767L53.4454 92.2321L52.8584 92.2619ZM50.2064 92.2619L49.6408 92.422L49.7618 92.8497H50.2064V92.2619ZM49.5434 90.8842L49.9868 90.4983L49.9857 90.4972L49.5434 90.8842ZM45.1177 91.2287L45.595 91.5716L45.5962 91.57L45.1177 91.2287ZM45.1607 97.7294L44.7068 98.1029L44.7101 98.1068L45.1607 97.7294ZM49.5348 97.8758L49.0812 97.5018L49.0762 97.5081L49.5348 97.8758ZM50.2064 96.4035V95.8157H49.7571L49.6392 96.2492L50.2064 96.4035ZM52.8325 96.4035L53.4124 96.4997L53.5259 95.8157H52.8325V96.4035ZM51.0674 99.7787L50.6706 99.3451L50.6693 99.3463L51.0674 99.7787ZM43.1373 99.3223L42.6977 99.7126L42.6987 99.7137L43.1373 99.3223ZM42.158 94.4834C42.158 92.3724 42.7218 90.8323 43.7702 89.7739L42.9349 88.9466C41.6069 90.2875 40.9824 92.1629 40.9824 94.4834H42.158ZM43.7705 89.7736C44.6832 88.8507 45.8424 88.3809 47.2961 88.3809V87.2053C45.5582 87.2053 44.0884 87.7803 42.9346 88.9469L43.7705 89.7736ZM47.2961 88.3809C49.2931 88.3809 50.6497 89.027 51.4997 90.2327L52.4605 89.5554C51.3358 87.9599 49.5697 87.2053 47.2961 87.2053V88.3809ZM51.4971 90.229C51.9929 90.9441 52.2377 91.6297 52.2713 92.2917L53.4454 92.2321C53.3986 91.3098 53.0579 90.4169 52.4631 89.5591L51.4971 90.229ZM52.8584 91.6741H50.2064V92.8497H52.8584V91.6741ZM50.772 92.1018C50.5876 91.4506 50.3358 90.8994 49.9868 90.4983L49.1 91.2701C49.2905 91.4891 49.4807 91.8563 49.6408 92.422L50.772 92.1018ZM49.9857 90.4972C49.3612 89.7834 48.463 89.4699 47.3994 89.4699V90.6455C48.2301 90.6455 48.7612 90.883 49.101 91.2713L49.9857 90.4972ZM47.3994 89.4699C46.2464 89.4699 45.307 89.951 44.6391 90.8873L45.5962 91.57C46.042 90.945 46.6237 90.6455 47.3994 90.6455V89.4699ZM44.6403 90.8857C43.9842 91.7988 43.6947 93.0371 43.6947 94.5264H44.8703C44.8703 93.1685 45.1375 92.2084 45.595 91.5716L44.6403 90.8857ZM43.6947 94.5264C43.6947 96.0157 43.9986 97.2419 44.7068 98.1029L45.6147 97.356C45.1518 96.7934 44.8703 95.8842 44.8703 94.5264H43.6947ZM44.7101 98.1068C45.411 98.9439 46.324 99.3763 47.408 99.3763V98.2007C46.6781 98.2007 46.0929 97.9271 45.6114 97.3521L44.7101 98.1068ZM47.408 99.3763C48.4781 99.3763 49.372 99.0184 49.9933 98.2435L49.0762 97.5081C48.7217 97.9502 48.1978 98.2007 47.408 98.2007V99.3763ZM49.9883 98.2498C50.3335 97.8311 50.5854 97.2498 50.7736 96.5577L49.6392 96.2492C49.4715 96.8659 49.2756 97.2661 49.0813 97.5019L49.9883 98.2498ZM50.2064 96.9913H52.8325V95.8157H50.2064V96.9913ZM52.2527 96.3072C52.0425 97.5736 51.5116 98.5754 50.6706 99.3451L51.4642 100.212C52.5175 99.2484 53.1633 98.0001 53.4124 96.4997L52.2527 96.3072ZM50.6693 99.3463C49.8529 100.098 48.7943 100.491 47.4425 100.491V101.667C49.0411 101.667 50.3991 101.193 51.4655 100.211L50.6693 99.3463ZM47.4425 100.491C45.7545 100.491 44.4905 99.9562 43.5759 98.931L42.6987 99.7137C43.8735 101.03 45.4797 101.667 47.4425 101.667V100.491ZM43.5769 98.9321C42.6536 97.8921 42.158 96.4333 42.158 94.4834H40.9824C40.9824 96.6319 41.5316 98.3991 42.6977 99.7126L43.5769 98.9321ZM57.2927 100.726V101.314H57.8805V100.726H57.2927ZM54.6579 100.726H54.0701V101.314H54.6579V100.726ZM54.6579 88.0342V87.4464H54.0701V88.0342H54.6579ZM57.2927 88.0342H57.8805V87.4464H57.2927V88.0342ZM57.2927 100.138H54.6579V101.314H57.2927V100.138ZM55.2457 100.726V88.0342H54.0701V100.726H55.2457ZM54.6579 88.622H57.2927V87.4464H54.6579V88.622ZM56.7049 88.0342V100.726H57.8805V88.0342H56.7049ZM63.2424 95.9299L62.6838 95.7469L62.4313 96.5177H63.2424V95.9299ZM66.4626 95.9299V96.5177H67.2658L67.0229 95.7521L66.4626 95.9299ZM64.8783 90.9359L65.4386 90.7582L64.8873 89.0204L64.3198 90.7529L64.8783 90.9359ZM63.406 88.0342V87.4464H62.9916L62.8524 87.8367L63.406 88.0342ZM66.4024 88.0342L66.9564 87.838L66.8178 87.4464H66.4024V88.0342ZM70.897 100.726V101.314H71.7287L71.451 100.53L70.897 100.726ZM68.0211 100.726L67.4602 100.902L67.5894 101.314H68.0211V100.726ZM67.2031 98.1169L67.764 97.9411L67.6348 97.5291H67.2031V98.1169ZM62.5277 98.1169V97.5291H62.1054L61.9707 97.9294L62.5277 98.1169ZM61.6495 100.726V101.314H62.0718L62.2066 100.913L61.6495 100.726ZM58.877 100.726L58.3234 100.528L58.0431 101.314H58.877V100.726ZM63.2424 96.5177H66.4626V95.3421H63.2424V96.5177ZM67.0229 95.7521L65.4386 90.7582L64.3181 91.1137L65.9024 96.1076L67.0229 95.7521ZM64.3198 90.7529L62.6838 95.7469L63.801 96.1129L65.4369 91.1189L64.3198 90.7529ZM63.406 88.622H66.4024V87.4464H63.406V88.622ZM65.8483 88.2305L70.3429 100.922L71.451 100.53L66.9564 87.838L65.8483 88.2305ZM70.897 100.138H68.0211V101.314H70.897V100.138ZM68.582 100.55L67.764 97.9411L66.6423 98.2928L67.4602 100.902L68.582 100.55ZM67.2031 97.5291H62.5277V98.7047H67.2031V97.5291ZM61.9707 97.9294L61.0924 100.538L62.2066 100.913L63.0848 98.3044L61.9707 97.9294ZM61.6495 100.138H58.877V101.314H61.6495V100.138ZM59.4306 100.923L63.9596 88.2318L62.8524 87.8367L58.3234 100.528L59.4306 100.923ZM72.5157 88.0342V87.4464H71.9279V88.0342H72.5157ZM75.1677 88.0342H75.7555V87.4464H75.1677V88.0342ZM75.1677 98.4441H74.5799V99.0319H75.1677V98.4441ZM81.4532 98.4441H82.041V97.8563H81.4532V98.4441ZM81.4532 100.726V101.314H82.041V100.726H81.4532ZM72.5157 100.726H71.9279V101.314H72.5157V100.726ZM72.5157 88.622H75.1677V87.4464H72.5157V88.622ZM74.5799 88.0342V98.4441H75.7555V88.0342H74.5799ZM75.1677 99.0319H81.4532V97.8563H75.1677V99.0319ZM80.8654 98.4441V100.726H82.041V98.4441H80.8654ZM81.4532 100.138H72.5157V101.314H81.4532V100.138ZM73.1035 100.726V88.0342H71.9279V100.726H73.1035ZM85.2159 96.8081L85.7981 96.7274L85.7278 96.2203H85.2159V96.8081ZM85.6895 98.1083L85.2349 98.481L85.2359 98.4821L85.6895 98.1083ZM89.4263 98.6852L89.622 99.2395L89.6238 99.2388L89.4263 98.6852ZM89.986 96.2399L90.2976 95.7414L90.2919 95.7379L89.986 96.2399ZM88.2553 95.6457L88.1267 96.2193L88.1296 96.2199L88.2553 95.6457ZM86.9121 95.3444L86.7825 95.9177L86.7835 95.9179L86.9121 95.3444ZM84.1741 94.3714L84.5089 93.8883L84.5061 93.8864L84.1741 94.3714ZM91.1915 88.7317L90.8369 89.2005L90.8401 89.2029L91.1915 88.7317ZM92.681 91.8142V92.402H93.2892L93.2685 91.7942L92.681 91.8142ZM90.1324 91.8142L89.5456 91.8495L89.5789 92.402H90.1324V91.8142ZM89.1336 90.1868L89.4042 89.665L89.4023 89.664L89.1336 90.1868ZM85.9564 90.2815L85.6272 89.7946L85.9564 90.2815ZM85.9478 92.4513L86.2419 91.9423L86.2339 91.9378L85.9478 92.4513ZM87.601 92.9766L87.7382 92.405L87.7371 92.4047L87.601 92.9766ZM89.788 93.5018L89.6507 94.0733L89.6511 94.0734L89.788 93.5018ZM91.9578 94.4231L91.5939 94.8847L91.594 94.8848L91.9578 94.4231ZM91.7597 99.9079L92.1439 100.353L92.1442 100.353L91.7597 99.9079ZM84.1052 99.9251L83.738 100.384L83.7397 100.385L84.1052 99.9251ZM82.6845 96.8081V96.2203H82.0967V96.8081H82.6845ZM84.6337 96.8888C84.7211 97.5194 84.9021 98.0751 85.2349 98.481L86.144 97.7356C86.0061 97.5675 85.8714 97.2564 85.7981 96.7274L84.6337 96.8888ZM85.2359 98.4821C85.8274 99.1999 86.7782 99.4796 87.9023 99.4796V98.304C86.937 98.304 86.4125 98.0614 86.1431 97.7345L85.2359 98.4821ZM87.9023 99.4796C88.5641 99.4796 89.1453 99.4077 89.622 99.2395L89.2307 98.1309C88.9267 98.2382 88.4919 98.304 87.9023 98.304V99.4796ZM89.6238 99.2388C90.0722 99.0789 90.4574 98.8326 90.7286 98.4731C91.003 98.1093 91.1249 97.6772 91.1249 97.2128H89.9493C89.9493 97.466 89.886 97.638 89.7901 97.7651C89.6911 97.8963 89.5209 98.0274 89.2289 98.1315L89.6238 99.2388ZM91.1249 97.2128C91.1249 96.5829 90.8297 96.074 90.2975 95.7414L89.6745 96.7383C89.8771 96.8649 89.9493 97.0047 89.9493 97.2128H91.1249ZM90.2919 95.7379C89.8397 95.4624 89.1858 95.2478 88.3811 95.0716L88.1296 96.2199C88.8977 96.3881 89.3976 96.5696 89.6801 96.7418L90.2919 95.7379ZM88.384 95.0722L87.0408 94.7708L86.7835 95.9179L88.1267 96.2193L88.384 95.0722ZM87.0418 94.7711C85.7278 94.474 84.9133 94.1686 84.5089 93.8883L83.8392 94.8545C84.4451 95.2745 85.456 95.6178 86.7825 95.9177L87.0418 94.7711ZM84.5061 93.8864C83.8445 93.4335 83.4789 92.7211 83.4789 91.6247H82.3033C82.3033 93.0196 82.793 94.1383 83.842 94.8565L84.5061 93.8864ZM83.4789 91.6247C83.4789 90.6505 83.8248 89.8652 84.5265 89.2267L83.7355 88.3571C82.784 89.2227 82.3033 90.3259 82.3033 91.6247H83.4789ZM84.5265 89.2267C85.206 88.6086 86.2551 88.2518 87.7732 88.2518V87.0762C86.0882 87.0762 84.7092 87.4713 83.7355 88.3571L84.5265 89.2267ZM87.7732 88.2518C89.0005 88.2518 90.011 88.576 90.8369 89.2005L91.546 88.2628C90.4891 87.4637 89.2207 87.0762 87.7732 87.0762V88.2518ZM90.8401 89.2029C91.6226 89.7862 92.0528 90.635 92.0936 91.8342L93.2685 91.7942C93.2175 90.2954 92.6546 89.0892 91.5428 88.2604L90.8401 89.2029ZM92.681 91.2264H90.1324V92.402H92.681V91.2264ZM90.7191 91.7789C90.6622 90.8326 90.2279 90.0921 89.4042 89.665L88.863 90.7086C89.2791 90.9244 89.5107 91.2688 89.5456 91.8495L90.7191 91.7789ZM89.4023 89.664C88.8835 89.3974 88.2711 89.2804 87.5923 89.2804V90.456C88.142 90.456 88.5571 90.5514 88.8649 90.7096L89.4023 89.664ZM87.5923 89.2804C86.836 89.2804 86.163 89.4323 85.6272 89.7946L86.2856 90.7685C86.5649 90.5797 86.9825 90.456 87.5923 90.456V89.2804ZM85.6272 89.7946C85.0572 90.1799 84.7573 90.7473 84.7573 91.4353H85.9329C85.9329 91.136 86.0404 90.9342 86.2856 90.7685L85.6272 89.7946ZM84.7573 91.4353C84.7573 91.7513 84.8282 92.0562 84.9902 92.3293C85.152 92.602 85.3855 92.8109 85.6617 92.9648L86.2339 91.9378C86.1083 91.8679 86.0404 91.7955 86.0013 91.7295C85.9624 91.664 85.9329 91.5728 85.9329 91.4353H84.7573ZM85.6537 92.9603C85.9982 93.1593 86.6338 93.3505 87.4648 93.5484L87.7371 92.4047C86.8805 92.2008 86.4139 92.0418 86.2418 91.9424L85.6537 92.9603ZM87.4637 93.5481L89.6507 94.0733L89.9252 92.9302L87.7382 92.405L87.4637 93.5481ZM89.6511 94.0734C90.5702 94.2936 91.2006 94.5747 91.5939 94.8847L92.3216 93.9615C91.7391 93.5023 90.923 93.1692 89.9249 92.9302L89.6511 94.0734ZM91.594 94.8848C92.185 95.3504 92.5065 96.0292 92.5065 97.0148H93.6821C93.6821 95.7387 93.246 94.6897 92.3215 93.9614L91.594 94.8848ZM92.5065 97.0148C92.5065 98.0008 92.138 98.8038 91.3753 99.4632L92.1442 100.353C93.1609 99.4735 93.6821 98.3478 93.6821 97.0148H92.5065ZM91.3755 99.463C90.6333 100.104 89.5376 100.465 88.0056 100.465V101.641C89.7112 101.641 91.1182 101.239 92.1439 100.353L91.3755 99.463ZM88.0056 100.465C86.4369 100.465 85.2815 100.108 84.4707 99.4647L83.7397 100.385C84.8231 101.246 86.268 101.641 88.0056 101.641V100.465ZM84.4724 99.4661C83.6782 98.8307 83.2723 97.9679 83.2723 96.8081H82.0967C82.0967 98.2889 82.6379 99.504 83.738 100.384L84.4724 99.4661ZM82.6845 97.3959H85.2159V96.2203H82.6845V97.3959Z" fill="#FF94E1"/>
<path d="M97.5832 36.1753L98.5357 38.7495L101.11 39.7021L98.5357 40.6546L97.5832 43.2289L96.6306 40.6546L94.0564 39.7021L96.6306 38.7495L97.5832 36.1753Z" fill="#FF94E1"/>
<path d="M86.415 27.946L88.4789 33.5235L94.0564 35.5874L88.4789 37.6513L86.415 43.2288L84.3512 37.6513L78.7737 35.5874L84.3512 33.5235L86.415 27.946Z" fill="#FF94E1"/>
<circle cx="9.65778" cy="10.5562" r="18" fill="#F790DA"/>
<circle cx="106.366" cy="123.936" r="18" transform="rotate(165 106.366 123.936)" fill="#F790DA"/>
<path d="M31.1578 16.5562C31.1578 26.2345 23.5334 34.0562 14.1578 34.0562C4.78212 34.0562 -2.84222 26.2345 -2.84222 16.5562C-2.84222 6.8778 4.78212 -0.943848 14.1578 -0.943848C23.5334 -0.943848 31.1578 6.8778 31.1578 16.5562Z" stroke="#F790DA"/>
<path d="M84.0457 123.705C81.5408 114.357 86.881 104.828 95.9371 102.402C104.993 99.9752 114.382 105.557 116.887 114.906C119.392 124.254 114.052 133.783 104.996 136.209C95.9396 138.636 86.5507 133.054 84.0457 123.705Z" stroke="#F790DA"/>
</g>
<defs>
<filter id="filter0_i_112_6183" x="43.9177" y="-0.385083" width="22.2985" height="1.35188" filterUnits="userSpaceOnUse" color-interpolation-filters="sRGB">
<feFlood flood-opacity="0" result="BackgroundImageFix"/>
<feBlend mode="normal" in="SourceGraphic" in2="BackgroundImageFix" result="shape"/>
<feColorMatrix in="SourceAlpha" type="matrix" values="0 0 0 0 0 0 0 0 0 0 0 0 0 0 0 0 0 0 127 0" result="hardAlpha"/>
<feOffset dy="-0.385083"/>
<feGaussianBlur stdDeviation="0.192542"/>
<feComposite in2="hardAlpha" operator="arithmetic" k2="-1" k3="1"/>
<feColorMatrix type="matrix" values="0 0 0 0 0.220833 0 0 0 0 0.220833 0 0 0 0 0.220833 0 0 0 1 0"/>
<feBlend mode="normal" in2="shape" result="effect1_innerShadow_112_6183"/>
</filter>
<filter id="filter1_f_112_6183" x="65.3739" y="10.1086" width="1.32439" height="2.31145" filterUnits="userSpaceOnUse" color-interpolation-filters="sRGB">
<feFlood flood-opacity="0" result="BackgroundImageFix"/>
<feBlend mode="normal" in="SourceGraphic" in2="BackgroundImageFix" result="shape"/>
<feGaussianBlur stdDeviation="0.133709" result="effect1_foregroundBlur_112_6183"/>
</filter>
<filter id="filter2_f_112_6183" x="65.0982" y="9.63491" width="2.46834" height="2.46846" filterUnits="userSpaceOnUse" color-interpolation-filters="sRGB">
<feFlood flood-opacity="0" result="BackgroundImageFix"/>
<feBlend mode="normal" in="SourceGraphic" in2="BackgroundImageFix" result="shape"/>
<feGaussianBlur stdDeviation="0.469043" result="effect1_foregroundBlur_112_6183"/>
</filter>
<filter id="filter3_f_112_6183" x="66.361" y="10.1086" width="1.32439" height="2.31145" filterUnits="userSpaceOnUse" color-interpolation-filters="sRGB">
<feFlood flood-opacity="0" result="BackgroundImageFix"/>
<feBlend mode="normal" in="SourceGraphic" in2="BackgroundImageFix" result="shape"/>
<feGaussianBlur stdDeviation="0.133709" result="effect1_foregroundBlur_112_6183"/>
</filter>
<filter id="filter4_f_112_6183" x="66.1182" y="11.0501" width="1.21755" height="1.21768" filterUnits="userSpaceOnUse" color-interpolation-filters="sRGB">
<feFlood flood-opacity="0" result="BackgroundImageFix"/>
<feBlend mode="normal" in="SourceGraphic" in2="BackgroundImageFix" result="shape"/>
<feGaussianBlur stdDeviation="0.156348" result="effect1_foregroundBlur_112_6183"/>
</filter>
<linearGradient id="paint0_linear_112_6183" x1="65.148" y1="10.3756" x2="67.8127" y2="11.9547" gradientUnits="userSpaceOnUse">
<stop stop-color="#222222"/>
<stop offset="1" stop-color="#0B0B0B"/>
</linearGradient>
<radialGradient id="paint1_radial_112_6183" cx="0" cy="0" r="1" gradientUnits="userSpaceOnUse" gradientTransform="translate(66.5299 11.1654) rotate(37.875) scale(1.1253 1.13362)">
<stop stop-color="#152457"/>
<stop offset="1"/>
</radialGradient>
<linearGradient id="paint2_linear_112_6183" x1="65.8387" y1="10.5735" x2="66.3322" y2="12.1526" gradientUnits="userSpaceOnUse">
<stop stop-color="#20569B"/>
<stop offset="0.677083" stop-color="#061127"/>
</linearGradient>
<linearGradient id="paint3_linear_112_6183" x1="67.2206" y1="11.9551" x2="66.7271" y2="10.376" gradientUnits="userSpaceOnUse">
<stop stop-color="#3D6495"/>
<stop offset="0.71875" stop-color="#061127"/>
</linearGradient>
<linearGradient id="paint4_linear_112_6183" x1="67.1218" y1="11.8563" x2="66.727" y2="11.3628" gradientUnits="userSpaceOnUse">
<stop stop-color="#3291AF"/>
<stop offset="1" stop-color="#3291AF" stop-opacity="0"/>
</linearGradient>
<clipPath id="clip0_112_6183">
<rect x="3.46558" y="3.46582" width="103.202" height="223.348" rx="14.0767" fill="white"/>
</clipPath>
<clipPath id="clip1_112_6183">
<rect width="103.202" height="223.34" fill="white" transform="translate(3.46558 3.46973)"/>
</clipPath>
</defs>
</svg>
