<svg width="100" height="100" viewBox="0 0 100 100" fill="none" xmlns="http://www.w3.org/2000/svg">
<path d="M50.2722 99.4533C77.655 99.4533 99.8531 77.2441 99.8531 49.8477C99.8531 22.4513 77.655 0.242065 50.2722 0.242065C22.8895 0.242065 0.691406 22.4513 0.691406 49.8477C0.691406 77.2441 22.8895 99.4533 50.2722 99.4533Z" fill="#604443"/>
<path d="M89.0757 49.8254C89.0757 71.2794 71.6837 88.6714 50.2297 88.6714C28.7757 88.6714 11.3837 71.2794 11.3837 49.8254C11.3837 28.3714 28.7757 10.9794 50.2297 10.9794C71.6837 10.9794 89.0757 28.3714 89.0757 49.8254Z" stroke="#553C3B" stroke-width="0.396387"/>
<path d="M79.1664 49.8253C79.1664 65.8063 66.2112 78.7615 50.2302 78.7615C34.2491 78.7615 21.2939 65.8063 21.2939 49.8253C21.2939 33.8442 34.2491 20.889 50.2302 20.889C66.2112 20.889 79.1664 33.8442 79.1664 49.8253Z" stroke="#553C3B" stroke-width="0.396387"/>
<path d="M50.2725 71.6916C62.3305 71.6916 72.1055 61.9117 72.1055 49.8476C72.1055 37.7835 62.3305 28.0037 50.2725 28.0037C38.2144 28.0037 28.4395 37.7835 28.4395 49.8476C28.4395 61.9117 38.2144 71.6916 50.2725 71.6916Z" fill="#0F0F11"/>
<rect x="47.2559" y="33.7716" width="6.3422" height="6.3422" fill="#A0A0A0"/>
<rect x="47.2559" y="59.1404" width="6.3422" height="6.3422" fill="#ACADAD"/>
<rect x="35.1094" y="44.4457" width="6.3422" height="6.3422" transform="rotate(-60 35.1094 44.4457)" fill="#ACADAD"/>
<rect x="57.0801" y="57.1301" width="6.3422" height="6.3422" transform="rotate(-60 57.0801 57.1301)" fill="#ACADAD"/>
<rect x="38.2812" y="60.3013" width="6.3422" height="6.3422" transform="rotate(-120 38.2812 60.3013)" fill="#ACADAD"/>
<rect x="60.252" y="47.6168" width="6.3422" height="6.3422" transform="rotate(-120 60.252 47.6168)" fill="#ACADAD"/>
<circle cx="50.4275" cy="49.6272" r="15.8555" stroke="#ACADAD" stroke-width="2.37832"/>
<path d="M50.273 52.2703C51.6104 52.2703 52.6945 51.1856 52.6945 49.8476C52.6945 48.5096 51.6104 47.4249 50.273 47.4249C48.9357 47.4249 47.8516 48.5096 47.8516 49.8476C47.8516 51.1856 48.9357 52.2703 50.273 52.2703Z" fill="#ACADAD"/>
<path d="M50.2723 27.5272C37.9267 27.5272 27.9629 37.5357 27.9629 49.8478C27.9629 62.1598 37.9664 72.1683 50.2723 72.1683C62.5782 72.1683 72.6214 62.1598 72.6214 49.8478C72.6214 37.5357 62.6179 27.5272 50.2723 27.5272ZM50.2723 70.2222C39.0382 70.2222 29.9477 61.0875 29.9477 49.8875C29.9477 38.6875 39.0779 29.5528 50.2723 29.5528C61.5064 29.5528 70.6365 38.6875 70.6365 49.8875C70.6365 61.0875 61.5064 70.2222 50.2723 70.2222Z" fill="#A4A4A4"/>
</svg>
