<svg width="274" height="204" viewBox="0 0 274 204" fill="none" xmlns="http://www.w3.org/2000/svg">
<g filter="url(#filter0_i_456_7190)">
<path d="M273.5 5.94841V197.54C273.5 200.677 270.959 203.219 267.823 203.219H6.46174C3.32573 203.219 0.785156 200.677 0.785156 197.54V5.94841C0.785156 2.81082 3.32573 0.268982 6.46174 0.268982H267.823C270.959 0.268982 273.5 2.81082 273.5 5.94841Z" fill="url(#paint0_linear_456_7190)"/>
</g>
<g opacity="0.8">
<path opacity="0.8" d="M229.104 203.219H226.765L212.369 163.078H62.7073L48.3111 203.219H45.9727L61.1727 160.806H213.904L229.104 203.219Z" fill="black"/>
</g>
<path d="M229.105 203.219H226.779L212.457 163.112L214.238 161.599L229.105 203.219Z" fill="#393B46"/>
<path d="M191.843 115.446H82.043C81.2491 115.446 80.5742 114.771 80.5742 113.977V71.242C80.5742 70.4477 81.2491 69.7725 82.043 69.7725H191.843C192.637 69.7725 193.312 70.4477 193.312 71.242V113.977C193.312 114.771 192.637 115.446 191.843 115.446Z" fill="#121212"/>
<path d="M80.5362 122.039C96.6502 122.039 109.713 108.97 109.713 92.8475C109.713 76.7255 96.6502 63.6561 80.5362 63.6561C64.4223 63.6561 51.3594 76.7255 51.3594 92.8475C51.3594 108.97 64.4223 122.039 80.5362 122.039Z" fill="#604443"/>
<path d="M80.5362 114.691C92.5942 114.691 102.369 104.912 102.369 92.8474C102.369 80.7834 92.5942 71.0035 80.5362 71.0035C68.4781 71.0035 58.7031 80.7834 58.7031 92.8474C58.7031 104.912 68.4781 114.691 80.5362 114.691Z" fill="#0F0F11"/>
<rect x="77.2871" y="76.7717" width="6.3422" height="6.3422" fill="#A0A0A0"/>
<rect x="77.2871" y="102.14" width="6.3422" height="6.3422" fill="#ACADAD"/>
<rect x="65.1406" y="87.4457" width="6.3422" height="6.3422" transform="rotate(-60 65.1406 87.4457)" fill="#ACADAD"/>
<rect x="87.1113" y="100.13" width="6.3422" height="6.3422" transform="rotate(-60 87.1113 100.13)" fill="#ACADAD"/>
<rect x="68.3125" y="103.301" width="6.3422" height="6.3422" transform="rotate(-120 68.3125 103.301)" fill="#ACADAD"/>
<rect x="90.2832" y="90.6167" width="6.3422" height="6.3422" transform="rotate(-120 90.2832 90.6167)" fill="#ACADAD"/>
<circle cx="80.4587" cy="92.6271" r="15.8555" stroke="#ACADAD" stroke-width="2.37832"/>
<path d="M80.5348 95.2701C81.8721 95.2701 82.9562 94.1855 82.9562 92.8474C82.9562 91.5094 81.8721 90.4247 80.5348 90.4247C79.1974 90.4247 78.1133 91.5094 78.1133 92.8474C78.1133 94.1855 79.1974 95.2701 80.5348 95.2701Z" fill="#ACADAD"/>
<path d="M80.536 70.5268C68.1904 70.5268 58.2266 80.5353 58.2266 92.8474C58.2266 105.159 68.2301 115.168 80.536 115.168C92.8418 115.168 102.845 105.159 102.845 92.8474C102.845 80.5353 92.8815 70.5268 80.536 70.5268ZM80.536 113.222C69.3019 113.222 60.2114 104.087 60.2114 92.8871C60.2114 81.6871 69.3416 72.5523 80.536 72.5523C91.7303 72.5523 100.861 81.6871 100.861 92.8871C100.861 104.087 91.77 113.222 80.536 113.222Z" fill="#A4A4A4"/>
<path d="M193.272 142.453C220.655 142.453 242.853 120.244 242.853 92.8478C242.853 65.4513 220.655 43.2421 193.272 43.2421C165.89 43.2421 143.691 65.4513 143.691 92.8478C143.691 120.244 165.89 142.453 193.272 142.453Z" fill="#604443"/>
<path d="M232.076 92.8255C232.076 114.279 214.684 131.671 193.23 131.671C171.776 131.671 154.384 114.279 154.384 92.8255C154.384 71.3714 171.776 53.9795 193.23 53.9795C214.684 53.9795 232.076 71.3714 232.076 92.8255Z" stroke="#553C3B" stroke-width="0.396387"/>
<path d="M222.166 92.8253C222.166 108.806 209.211 121.762 193.23 121.762C177.249 121.762 164.294 108.806 164.294 92.8253C164.294 76.8443 177.249 63.8891 193.23 63.8891C209.211 63.8891 222.166 76.8443 222.166 92.8253Z" stroke="#553C3B" stroke-width="0.396387"/>
<path d="M193.272 114.692C205.331 114.692 215.106 104.912 215.106 92.8477C215.106 80.7836 205.331 71.0037 193.272 71.0037C181.214 71.0037 171.439 80.7836 171.439 92.8477C171.439 104.912 181.214 114.692 193.272 114.692Z" fill="#0F0F11"/>
<rect x="190.256" y="76.7718" width="6.3422" height="6.3422" fill="#A0A0A0"/>
<rect x="190.256" y="102.141" width="6.3422" height="6.3422" fill="#ACADAD"/>
<rect x="178.109" y="87.4458" width="6.3422" height="6.3422" transform="rotate(-60 178.109 87.4458)" fill="#ACADAD"/>
<rect x="200.08" y="100.13" width="6.3422" height="6.3422" transform="rotate(-60 200.08 100.13)" fill="#ACADAD"/>
<rect x="181.281" y="103.301" width="6.3422" height="6.3422" transform="rotate(-120 181.281 103.301)" fill="#ACADAD"/>
<rect x="203.252" y="90.6168" width="6.3422" height="6.3422" transform="rotate(-120 203.252 90.6168)" fill="#ACADAD"/>
<circle cx="193.427" cy="92.6272" r="15.8555" stroke="#ACADAD" stroke-width="2.37832"/>
<path d="M193.273 95.2704C194.61 95.2704 195.695 94.1857 195.695 92.8477C195.695 91.5097 194.61 90.425 193.273 90.425C191.936 90.425 190.852 91.5097 190.852 92.8477C190.852 94.1857 191.936 95.2704 193.273 95.2704Z" fill="#ACADAD"/>
<path d="M193.272 70.5272C180.927 70.5272 170.963 80.5357 170.963 92.8478C170.963 105.16 180.966 115.168 193.272 115.168C205.578 115.168 215.621 105.16 215.621 92.8478C215.621 80.5357 205.618 70.5272 193.272 70.5272ZM193.272 113.222C182.038 113.222 172.948 104.087 172.948 92.8875C172.948 81.6875 182.078 72.5528 193.272 72.5528C204.506 72.5528 213.637 81.6875 213.637 92.8875C213.637 104.087 204.506 113.222 193.272 113.222Z" fill="#A4A4A4"/>
<path opacity="0.03" d="M251.826 57.0633H22.0633C20.5946 57.0633 19.4434 58.2548 19.4434 59.6846V125.494C19.4434 126.964 20.6343 128.116 22.0633 128.116H251.787C253.255 128.116 254.406 126.924 254.406 125.494V59.6846C254.446 58.2548 253.255 57.0633 251.826 57.0633ZM193.314 113.977C193.314 114.771 192.639 115.446 191.845 115.446H82.0446C81.2507 115.446 80.5759 114.771 80.5759 113.977V71.242C80.5759 70.4477 81.2507 69.7725 82.0446 69.7725H191.845C192.639 69.7725 193.314 70.4477 193.314 71.242V113.977Z" fill="white" stroke="#212121" stroke-width="1.58555" stroke-miterlimit="10"/>
<path opacity="0.4" d="M252.064 15.3611H22.222L14.6797 22.9072V152.74C14.6797 153.614 15.3942 154.368 16.3072 154.368H258.019C258.892 154.368 259.646 153.653 259.646 152.74V22.9072L252.064 15.3611ZM254.446 125.534C254.446 127.004 253.255 128.155 251.826 128.155H22.0632C20.5945 128.155 19.4433 126.964 19.4433 125.534V59.6845C19.4433 58.215 20.6342 57.0632 22.0632 57.0632H251.786C253.255 57.0632 254.406 58.2547 254.406 59.6845V125.534H254.446Z" fill="black"/>
<path d="M101.582 31.8444C101.557 31.781 101.551 31.6732 101.563 31.521C101.589 31.3688 101.614 31.1658 101.64 30.9121C101.64 30.5189 101.646 30.2779 101.659 30.1891L101.64 29.8086C101.64 29.6056 101.646 29.4344 101.659 29.2949V28.7431C101.684 28.6289 101.684 28.4387 101.659 28.1723C101.646 27.9059 101.659 27.5698 101.697 27.1639C101.735 26.7453 101.766 26.4916 101.792 26.4028V26.0223C101.792 25.9842 101.798 25.8511 101.811 25.6227V25.4895C101.823 25.2993 101.817 25.1851 101.792 25.1471L101.963 24.4431L102.039 24.0435C102.064 23.9928 102.16 23.885 102.325 23.7201C102.363 23.682 102.508 23.663 102.762 23.663C103.016 23.663 103.206 23.6693 103.333 23.682C103.46 23.6947 103.542 23.7328 103.58 23.7962C103.618 23.8469 103.656 23.9611 103.694 24.1387C103.771 24.3036 103.79 24.5128 103.751 24.7665C103.764 24.8426 103.771 24.8997 103.771 24.9378V25.128C103.809 25.3817 103.802 25.6418 103.751 25.9081C103.751 26.0096 103.758 26.1111 103.771 26.2126V26.3838C103.771 26.6375 103.751 26.8595 103.713 27.0497V27.5254C103.726 27.6903 103.707 27.8488 103.656 28.0011C103.656 28.0518 103.65 28.204 103.637 28.4577C103.612 28.5465 103.587 28.6543 103.561 28.7811C103.599 28.8826 103.599 29.0158 103.561 29.1807C103.523 29.2188 103.536 29.371 103.599 29.6373C103.549 29.8022 103.555 30.1003 103.618 30.5316V30.9121C103.656 31.318 103.65 31.7176 103.599 32.1108V32.225C103.599 32.4786 103.587 32.6626 103.561 32.7767C103.587 32.9924 103.587 33.2651 103.561 33.5949V33.709L103.523 34.1657C103.384 35.0663 102.978 35.58 102.305 35.7068C101.481 35.859 100.828 35.6371 100.346 35.0409L100.232 34.7555C100.092 34.7301 99.9081 34.4384 99.6798 33.8803C99.3246 33.0304 99.128 32.5611 99.09 32.4723C98.9124 31.9776 98.8236 31.7112 98.8236 31.6732L98.7856 31.3117C98.7729 31.2863 98.7475 31.2356 98.7095 31.1595C98.6714 31.0834 98.6397 31.0073 98.6143 30.9312C98.6143 30.8424 98.5699 30.6521 98.4811 30.3604C98.4811 30.335 98.4494 30.1764 98.386 29.8847L98.1577 28.1913C98.1577 28.1533 98.1513 28.0898 98.1387 28.0011L98.0625 28.4196C97.9738 29.2695 97.9103 29.7832 97.8723 29.9608L97.7771 31.8825V32.6435L97.7201 33.5758C97.7201 34.0452 97.7391 34.4828 97.7771 34.8887C97.7645 35.2565 97.6947 35.5039 97.5679 35.6307C97.441 35.7449 97.2507 35.8083 96.9971 35.821C96.8195 35.7702 96.5785 35.6751 96.274 35.5356C96.1853 35.4848 96.1218 35.3834 96.0838 35.2312C96.0584 35.0663 95.9886 34.9267 95.8745 34.8126C95.7603 34.6984 95.6969 34.5716 95.6842 34.432L95.4559 32.986C95.4559 32.7831 95.4622 32.5738 95.4749 32.3581C95.5003 32.1298 95.5003 31.8952 95.4749 31.6542C95.4622 31.4132 95.494 31.1341 95.5701 30.817C95.6589 30.4999 95.6969 30.2335 95.6842 30.0179C95.6715 29.7896 95.6842 29.5042 95.7223 29.1617C95.7603 28.8065 95.7794 28.5528 95.7794 28.4006C95.7794 28.2357 95.7984 28.1089 95.8364 28.0201C95.8364 27.8171 95.8491 27.6586 95.8745 27.5444C95.8618 27.5064 95.8999 27.3161 95.9886 26.9736C95.9886 26.8848 96.0077 26.7516 96.0457 26.5741C96.0838 26.3965 96.1218 26.1555 96.1599 25.8511C96.1979 25.5466 96.2677 25.2993 96.3692 25.109C96.4707 24.9187 96.6292 24.7031 96.8448 24.4621C96.959 24.3987 97.0605 24.2338 97.1493 23.9674C97.2381 23.8406 97.403 23.7201 97.644 23.6059C97.7328 23.5425 97.8469 23.5108 97.9864 23.5108C98.1387 23.5108 98.2782 23.5552 98.405 23.644C98.8997 23.8342 99.2041 24.1704 99.3183 24.6524L99.3944 25.128C99.3944 25.2041 99.4515 25.3754 99.5656 25.6418C99.5656 25.7686 99.591 25.9525 99.6418 26.1935C99.6418 26.3711 99.6861 26.555 99.7749 26.7453C99.9018 27.3922 99.9969 27.8425 100.06 28.0962C100.124 28.185 100.174 28.3055 100.213 28.4577C100.238 28.5719 100.289 28.7431 100.365 28.9714C100.39 29.187 100.447 29.4344 100.536 29.7134C101.056 31.4132 101.38 32.3708 101.506 32.5865C101.532 32.5357 101.544 32.3772 101.544 32.1108L101.582 31.8444ZM109.424 30.4935C109.335 29.9862 109.088 29.7515 108.682 29.7896C108.454 29.8022 108.257 29.9545 108.092 30.2462C107.864 30.6901 107.762 31.2673 107.788 31.9776C107.826 32.6753 107.876 33.1826 107.94 33.4997C108.016 33.8042 108.143 34.0705 108.32 34.2989C108.422 34.4764 108.574 34.5589 108.777 34.5462C109.132 34.5462 109.392 34.2481 109.557 33.652L109.709 33.1953C109.773 33.1319 109.785 33.0685 109.747 33.0051C109.874 32.6879 109.944 32.3138 109.957 31.8825C109.83 31.7937 109.754 31.7112 109.728 31.6351C109.652 31.4195 109.614 31.2736 109.614 31.1975C109.525 31.1341 109.475 31.0136 109.462 30.836C109.449 30.6584 109.437 30.5443 109.424 30.4935ZM105.942 32.282L106.018 31.3117C106.107 30.4365 106.373 29.6881 106.817 29.0665C107.249 28.5465 107.857 28.2801 108.644 28.2674H108.758C109.494 28.2674 110.026 28.426 110.356 28.7431C110.711 29.0222 110.971 29.3266 111.136 29.6564C111.314 29.9862 111.428 30.2272 111.479 30.3794C111.53 30.5316 111.561 30.7536 111.574 31.0453C111.599 31.5907 111.492 31.9015 111.25 31.9776C111.428 33.1826 111.32 34.1403 110.927 34.8506C110.8 35.1424 110.616 35.4595 110.375 35.802C110.198 36.0303 109.881 36.1571 109.424 36.1825C108.967 36.1825 108.568 36.1571 108.225 36.1064C107.895 36.0556 107.528 35.8971 107.122 35.6307C106.716 35.3517 106.43 34.9014 106.266 34.2798C106.088 33.6837 105.98 33.0177 105.942 32.282ZM115.661 30.7028L115.642 31.5019V32.1108L115.68 32.8338C115.68 33.3666 115.744 33.95 115.87 34.5843L115.966 34.7555C115.966 34.616 115.985 34.4955 116.023 34.394C116.073 34.2925 116.099 34.172 116.099 34.0325L116.365 33.0431C116.365 33.005 116.397 32.9226 116.46 32.7958C116.511 32.6689 116.587 32.4343 116.689 32.0918C116.803 31.7366 116.872 31.4322 116.898 31.1785C116.923 30.9121 116.949 30.7282 116.974 30.6267C116.999 30.5253 116.993 30.3857 116.955 30.2081L117.05 29.4281C117.05 29.2505 117.075 29.1236 117.126 29.0475C117.659 28.9714 118.008 28.927 118.173 28.9143C118.173 28.9904 118.217 29.0919 118.306 29.2188C118.306 29.2695 118.35 29.3837 118.439 29.5612L118.515 29.9037C118.591 30.0813 118.686 30.8614 118.8 32.244C118.813 32.6879 118.934 33.3031 119.162 34.0896C119.225 33.9881 119.251 33.8676 119.238 33.7281C119.314 33.652 119.352 33.449 119.352 33.1192L119.543 32.6055L119.904 30.6458L119.98 29.8086L120.132 29.2188C120.158 29.0539 120.208 28.9397 120.285 28.8763C120.373 28.8002 120.513 28.7685 120.703 28.7811H121.179C121.268 28.8446 121.388 28.8763 121.54 28.8763L121.769 28.9334C121.756 29.0856 121.743 29.2568 121.731 29.4471C121.718 29.5993 121.667 29.9481 121.578 30.4935C121.426 32.3074 121.312 33.3983 121.236 33.7661C121.236 33.8549 121.217 33.9247 121.179 33.9754C121.166 34.153 121.077 34.5843 120.912 35.2692C120.912 35.3707 120.779 35.5546 120.513 35.821C120.424 35.9732 120.291 36.0683 120.113 36.1064C120.05 36.1698 119.929 36.2079 119.752 36.2205C119.574 36.2459 119.39 36.2205 119.2 36.1444C119.01 36.081 118.902 36.0303 118.877 35.9922C118.75 35.8781 118.591 35.7956 118.401 35.7449L118.116 35.6307C117.963 35.4658 117.875 35.3707 117.849 35.3453C117.798 35.2692 117.754 35.0853 117.716 34.7935C117.691 34.7809 117.659 34.6096 117.621 34.2798C117.469 34.8379 117.393 35.1487 117.393 35.2121C117.329 35.4278 117.285 35.5546 117.259 35.5927C117.247 35.618 117.234 35.6624 117.221 35.7259C117.221 35.7766 117.209 35.8273 117.183 35.8781C117.183 35.9542 117.139 36.0366 117.05 36.1254C116.974 36.2142 116.822 36.284 116.593 36.3347C116.365 36.3981 116.067 36.4045 115.699 36.3537L115.471 36.3728C115.382 36.3728 115.287 36.3601 115.185 36.3347C115.033 36.2332 114.925 36.1064 114.862 35.9542C114.71 35.7385 114.577 35.5039 114.462 35.2502C114.386 35.1741 114.285 34.9204 114.158 34.4891C114.044 34.2228 113.987 34.0705 113.987 34.0325V33.8612C113.936 33.8105 113.879 33.6583 113.816 33.4046C113.765 33.1509 113.752 32.9607 113.777 32.8338C113.739 32.7831 113.72 32.6499 113.72 32.4343C113.695 32.3074 113.682 32.1045 113.682 31.8254C113.644 31.3561 113.6 31.0517 113.549 30.9121C113.562 30.7472 113.511 30.5189 113.397 30.2272C113.295 29.6564 113.264 29.3266 113.302 29.2378C113.264 29.1363 113.295 28.9778 113.397 28.7621C113.397 28.6987 113.555 28.5211 113.873 28.2294C114.037 28.1786 114.171 28.185 114.272 28.2484C114.374 28.2991 114.488 28.3309 114.615 28.3435L115.281 28.5338C115.648 28.6353 115.801 29.0602 115.737 29.8086L115.661 30.5506C115.661 30.5633 115.661 30.5887 115.661 30.6267V30.7028ZM130.602 27.278C130.615 27.4176 130.621 27.5317 130.621 27.6205L130.64 27.963L130.773 30.9121L130.754 31.2356C130.779 31.2609 130.824 31.2736 130.887 31.2736C131.141 31.2736 131.369 31.2166 131.572 31.1024C131.61 31.039 131.699 30.9755 131.839 30.9121C131.889 30.8614 131.946 30.8233 132.01 30.798C132.01 30.7726 132.073 30.7282 132.2 30.6648C132.276 30.5633 132.365 30.4809 132.466 30.4174C132.568 30.3413 132.625 30.2906 132.638 30.2652C132.942 29.872 133.151 29.39 133.266 28.8192C133.304 28.667 133.323 28.5211 133.323 28.3816C133.348 28.2421 133.348 28.0962 133.323 27.944C133.297 27.7791 133.285 27.6015 133.285 27.4112C133.247 27.1449 133.202 26.9419 133.151 26.8024C133.088 26.7136 133.044 26.5994 133.018 26.4599C132.841 26.1428 132.581 25.9145 132.238 25.7749C132.149 25.7369 132.023 25.7242 131.858 25.7369L131.648 25.6988C131.369 25.6988 131.071 25.7305 130.754 25.794C130.437 25.8574 130.272 25.9335 130.259 26.0223C130.259 26.0477 130.278 26.0667 130.316 26.0794C130.38 26.0794 130.456 26.1618 130.545 26.3267L130.602 26.7643V27.278ZM129.879 24.0245L130.469 23.9484C130.545 23.9484 130.646 23.9611 130.773 23.9864C130.951 23.9864 131.154 24.0055 131.382 24.0435C131.953 24.0435 132.365 24.0879 132.619 24.1767C132.885 24.2655 133.183 24.348 133.513 24.4241C133.843 24.5002 134.293 24.7348 134.864 25.128L135.073 25.3373C135.098 25.3373 135.13 25.3564 135.168 25.3944C135.219 25.4325 135.257 25.4578 135.282 25.4705C135.523 25.9018 135.663 26.3584 135.701 26.8404C135.726 26.9292 135.733 27.0117 135.72 27.0878V27.3732C135.758 27.4747 135.771 27.6078 135.758 27.7727C135.745 27.9376 135.726 28.0455 135.701 28.0962C135.701 28.2357 135.682 28.3372 135.644 28.4006C135.619 28.464 135.606 28.5148 135.606 28.5528C135.606 28.5782 135.561 28.7558 135.473 29.0856C135.397 29.4027 135.34 29.6056 135.301 29.6944C135.263 29.7832 135.035 30.0813 134.616 30.5887C134.363 30.8424 134.204 31.0199 134.141 31.1214L133.893 31.521C133.259 32.3581 132.321 32.7387 131.078 32.6626C131.052 32.6499 130.957 32.6435 130.792 32.6435L130.811 33.8612L130.792 34.8316V35.1551C130.792 35.32 130.779 35.4531 130.754 35.5546C130.741 35.6561 130.735 35.7639 130.735 35.8781C130.722 36.0556 130.703 36.1635 130.678 36.2015C130.577 36.4298 130.393 36.544 130.126 36.544C129.632 36.544 129.359 36.5123 129.308 36.4489C129.295 36.4489 129.169 36.3918 128.928 36.2776C128.725 36.1508 128.591 35.9859 128.528 35.7829C128.401 35.3897 128.357 35.0789 128.395 34.8506C128.42 34.673 128.42 34.2798 128.395 33.671C128.357 33.5695 128.338 33.4427 128.338 33.2904C128.363 33.2397 128.376 33.1256 128.376 32.948V32.6245C128.452 31.9649 128.49 31.5654 128.49 31.4258C128.49 31.2863 128.503 31.1912 128.528 31.1404C128.553 31.077 128.566 30.7536 128.566 30.1701C128.566 29.4978 128.528 28.9334 128.452 28.4767L128.433 28.1913C128.433 28.0137 128.42 27.8362 128.395 27.6586V27.4683L128.338 26.6692C128.338 26.555 128.319 26.4662 128.281 26.4028C128.243 26.3775 128.128 26.3267 127.938 26.2506C127.761 26.1745 127.608 26.0857 127.482 25.9842C127.367 25.8828 127.323 25.7179 127.348 25.4895C127.374 25.1598 127.564 24.9061 127.919 24.7285C127.906 24.7285 127.925 24.6968 127.976 24.6333C128.04 24.5699 128.135 24.5128 128.262 24.4621C128.401 24.3987 128.528 24.3353 128.642 24.2718C128.959 24.1831 129.188 24.1387 129.327 24.1387C129.479 24.1387 129.663 24.1006 129.879 24.0245ZM137.372 26.1745C137.41 26.0603 137.423 25.9525 137.41 25.8511C137.397 25.7496 137.404 25.4959 137.429 25.09C137.492 24.9758 137.499 24.7539 137.448 24.4241C137.448 24.2338 137.524 24.0372 137.676 23.8342C137.829 23.6186 137.993 23.46 138.171 23.3586V23.3776C138.222 23.3269 138.336 23.2888 138.514 23.2634C138.945 23.2 139.256 23.3332 139.446 23.663C139.395 23.7518 139.37 24.0372 139.37 24.5192V26.4599C139.382 26.777 139.389 27.2083 139.389 27.7537V28.4767L139.465 29.7134C139.465 30.0432 139.484 30.373 139.522 30.7028C139.522 31.3117 139.535 31.6795 139.56 31.8064C139.585 31.9332 139.598 32.022 139.598 32.0727V32.3772C139.598 32.6562 139.611 32.8592 139.636 32.986C139.636 33.1129 139.668 33.2461 139.731 33.3856C139.668 33.5758 139.668 33.7915 139.731 34.0325C139.795 34.1847 139.814 34.3813 139.788 34.6223C139.864 34.7745 139.89 34.9775 139.864 35.2312L139.921 35.3453L139.96 35.5166C140.01 35.6815 139.985 35.8781 139.883 36.1064C139.795 36.322 139.604 36.4679 139.313 36.544C139.034 36.6328 138.716 36.4996 138.361 36.1444C138.349 36.1064 138.279 36.0493 138.152 35.9732C138 35.8844 137.873 35.5863 137.771 35.0789C137.708 34.9521 137.676 34.8189 137.676 34.6794C137.537 34.5652 137.467 34.394 137.467 34.1657V33.7471C137.454 33.5568 137.429 33.43 137.391 33.3666C137.353 33.3158 137.321 33.1826 137.296 32.967L137.334 31.6922C137.334 31.2736 137.321 30.9502 137.296 30.7219V29.4281C137.258 29.0095 137.239 28.6924 137.239 28.4767C137.239 28.2484 137.283 27.7981 137.372 27.1258C137.372 27.0751 137.353 27.0053 137.315 26.9165C137.353 26.7263 137.372 26.4789 137.372 26.1745ZM145.727 31.1404C145.74 31.1024 145.765 30.8804 145.803 30.4745C145.778 30.4365 145.746 30.2969 145.708 30.0559C145.607 29.853 145.474 29.7008 145.309 29.5993C145.106 29.5105 144.985 29.4661 144.947 29.4661C144.833 29.5042 144.751 29.5486 144.7 29.5993C144.662 29.6373 144.554 29.8149 144.376 30.132C144.211 30.4491 144.072 30.9755 143.958 31.7112C143.856 32.4469 143.806 32.9797 143.806 33.3095C143.806 33.6393 143.818 34.0452 143.844 34.5272C143.869 34.9965 143.97 35.2185 144.148 35.1931C144.313 35.1677 144.541 34.7111 144.833 33.8232C144.846 33.7598 144.89 33.6456 144.966 33.4807L145.727 31.1404ZM147.953 30.3604C147.953 31.0326 148.023 31.6478 148.163 32.2059C148.226 32.764 148.34 33.3602 148.505 33.9944C148.543 34.2481 148.556 34.375 148.543 34.375C148.86 35.0726 149.038 35.4912 149.076 35.6307C149.114 35.7576 149.108 35.8654 149.057 35.9542V35.9351C149.019 36.0493 148.898 36.1508 148.695 36.2396C148.505 36.341 148.334 36.4045 148.182 36.4298C147.7 36.582 147.414 36.3981 147.326 35.8781C147.275 35.84 147.199 35.7639 147.097 35.6497C147.008 35.5229 146.958 35.4214 146.945 35.3453C146.932 35.2565 146.888 35.1741 146.812 35.098C146.786 35.0346 146.729 34.9521 146.641 34.8506C146.552 34.7492 146.501 34.6477 146.488 34.5462L146.431 34.0325L146.393 34.0135C146.19 34.432 146.057 34.7238 145.994 34.8887C145.841 35.32 145.575 35.8146 145.195 36.3728C144.763 36.8548 144.237 36.9943 143.615 36.7913C143.387 36.7787 143.203 36.7089 143.064 36.582C142.937 36.4552 142.848 36.3854 142.797 36.3728C142.721 36.3474 142.613 36.2523 142.474 36.0874C142.245 35.7829 142.106 35.3326 142.055 34.7365V34.2418C142.093 34.1784 142.093 33.8739 142.055 33.3285V33.2143C141.979 32.8338 141.941 32.6055 141.941 32.5294C141.941 32.4533 141.954 32.3518 141.979 32.225C142.004 32.0981 142.011 32.022 141.998 31.9966C141.985 31.9586 141.979 31.9015 141.979 31.8254V31.54L142.074 30.5126C142.214 30.0686 142.366 29.6691 142.531 29.3139C142.582 29.0983 142.677 28.927 142.816 28.8002C143.133 28.4577 143.305 28.2611 143.33 28.2103C143.419 28.0201 143.749 27.8679 144.319 27.7537L144.643 27.7727C144.77 27.7727 144.884 27.7918 144.985 27.8298C145.087 27.8552 145.156 27.8679 145.195 27.8679C145.372 27.9567 145.518 28.0011 145.632 28.0011C145.746 28.0011 145.937 28.0898 146.203 28.2674C146.279 28.2801 146.469 28.3879 146.774 28.5909C147.104 28.8065 147.294 28.927 147.345 28.9524L147.839 29.1236C147.979 29.2378 148.049 29.3012 148.049 29.3139C148.049 29.3266 148.017 29.6754 147.953 30.3604ZM156.824 31.4449L156.748 31.8254L156.71 32.282C156.71 32.3835 156.691 32.5104 156.653 32.6626C156.653 33.1826 156.615 33.5758 156.539 33.8422C156.539 34.172 156.488 34.5652 156.386 35.0219C156.348 35.4024 156.336 35.6688 156.348 35.821C156.285 35.9478 156.253 36.062 156.253 36.1635C156.253 36.2142 156.234 36.3474 156.196 36.563C156.158 36.7787 156.101 36.9245 156.025 37.0006C156.025 37.1402 155.999 37.2607 155.949 37.3621C155.873 37.5017 155.816 37.6412 155.777 37.7807C155.752 37.9329 155.727 38.0217 155.701 38.0471C155.689 38.0851 155.682 38.1105 155.682 38.1232L155.359 38.713C155.359 38.7257 155.295 38.8082 155.169 38.9604C155.143 39.0492 155.061 39.1823 154.921 39.3599C154.921 39.4107 154.706 39.5692 154.274 39.8356C154.135 39.9498 153.964 40.0322 153.761 40.0829L153.589 40.159C153.399 40.2732 153.164 40.3366 152.885 40.3493C152.327 40.4254 151.915 40.4191 151.649 40.3303L151.154 40.159V40.1781C150.951 40.0893 150.773 39.9688 150.621 39.8166C150.342 39.677 150.158 39.5312 150.07 39.379C149.981 39.2394 149.898 38.9984 149.822 38.6559C149.797 38.5291 149.828 38.3642 149.917 38.1613C150.019 37.971 150.152 37.8822 150.317 37.8949C150.355 37.8949 150.513 37.971 150.793 38.1232C150.818 38.1613 150.951 38.2818 151.192 38.4847C151.471 38.8145 151.763 38.9794 152.067 38.9794C152.181 38.9794 152.264 38.9667 152.315 38.9413C152.365 38.9287 152.511 38.9033 152.752 38.8652C152.714 38.8272 152.727 38.7828 152.79 38.7321C152.866 38.694 152.923 38.6686 152.962 38.6559C153.05 38.6306 153.126 38.5735 153.19 38.4847L153.437 38.2944C153.463 38.2564 153.551 38.1676 153.704 38.0281L153.894 37.7617C153.894 37.6729 153.964 37.527 154.103 37.3241C154.09 37.286 154.122 37.2036 154.198 37.0767C154.198 37.026 154.211 36.9499 154.236 36.8484L154.408 36.0874L154.389 35.9732C154.452 35.821 154.484 35.6561 154.484 35.4785L154.617 34.9458L154.541 34.9267L154.179 35.5166C154.179 35.5292 154.16 35.561 154.122 35.6117C154.084 35.6497 154.033 35.7132 153.97 35.802L153.608 36.2967L153.418 36.4108C153.088 36.6899 152.721 36.7913 152.315 36.7152C152.137 36.6138 151.972 36.5503 151.82 36.525C151.68 36.5123 151.541 36.4362 151.401 36.2967C151.236 36.2332 151.078 36.1254 150.926 35.9732C150.875 35.8717 150.85 35.7956 150.85 35.7449C150.85 35.6815 150.818 35.58 150.754 35.4405C150.628 34.7809 150.564 34.2101 150.564 33.7281C150.552 33.69 150.552 33.5695 150.564 33.3666C150.59 33.1509 150.602 33.0114 150.602 32.948C150.602 32.8719 150.615 32.7767 150.64 32.6626L150.716 32.0727C150.793 31.9713 150.85 31.781 150.888 31.5019C150.951 31.1848 151.091 30.7853 151.306 30.3033L151.401 30.0559L151.573 29.7705C151.573 29.6437 151.623 29.4724 151.725 29.2568C151.826 29.0412 151.89 28.9143 151.915 28.8763C151.94 28.8382 151.985 28.7875 152.048 28.7241C152.112 28.6606 152.175 28.5909 152.239 28.5148C152.403 28.3626 152.619 28.3118 152.885 28.3626C153.152 28.4133 153.348 28.4894 153.475 28.5909C153.615 28.6797 153.653 28.8699 153.589 29.1617C153.463 29.7578 153.399 30.0623 153.399 30.075L153.266 30.4365C153.266 30.6014 153.241 30.7345 153.19 30.836C153.19 30.8868 153.139 31.1912 153.038 31.7493C152.949 31.9142 152.904 32.0347 152.904 32.1108C152.904 32.2123 152.873 32.3581 152.809 32.5484C152.746 32.726 152.702 32.8655 152.676 32.967C152.638 33.208 152.613 33.4173 152.6 33.5949C152.587 33.7725 152.537 33.9437 152.448 34.1086C152.473 34.1086 152.473 34.1847 152.448 34.3369V34.5272C152.435 34.6794 152.543 34.7682 152.771 34.7935C153 34.8189 153.222 34.6477 153.437 34.2798C153.742 33.6456 153.913 33.2904 153.951 33.2143L154.103 32.9289L154.16 32.7577C154.249 32.6943 154.325 32.6182 154.389 32.5294L154.503 32.244C154.503 32.2059 154.756 31.4258 155.264 29.9037L155.378 29.409C155.378 29.1173 155.435 28.8953 155.549 28.7431C155.676 28.5909 155.797 28.5084 155.911 28.4957C156.101 28.4957 156.399 28.5845 156.805 28.7621C156.957 28.7621 157.052 28.9334 157.09 29.2758C157.09 29.5042 157.04 29.8213 156.938 30.2272C156.9 30.4682 156.881 30.6775 156.881 30.855C156.843 31.0073 156.824 31.2039 156.824 31.4449ZM161.105 25.3373H161.162C161.606 25.3627 161.892 25.4959 162.018 25.7369C162.158 25.9652 162.209 26.1872 162.171 26.4028C162.145 26.6185 161.974 26.8848 161.657 27.2019C161.353 27.519 161.074 27.6713 160.82 27.6586C160.744 27.6586 160.592 27.6205 160.363 27.5444C160.148 27.4683 160.033 27.4239 160.021 27.4112C160.008 27.3605 159.97 27.3224 159.907 27.2971C159.577 27.1702 159.393 26.8468 159.355 26.3267C159.355 26.276 159.393 26.2379 159.469 26.2126C159.418 26.2126 159.412 26.1365 159.45 25.9842C159.539 25.7052 159.735 25.5213 160.04 25.4325C160.433 25.3564 160.788 25.3246 161.105 25.3373ZM161.067 30.1511L160.744 33.3285C160.744 33.4046 160.744 33.4807 160.744 33.5568C160.744 33.6202 160.75 33.6773 160.763 33.7281C160.75 33.7788 160.744 33.8422 160.744 33.9183V35.2882C160.794 35.7195 160.794 35.9732 160.744 36.0493C160.668 36.0747 160.579 36.1127 160.477 36.1635C160.376 36.2269 160.179 36.2396 159.888 36.2015C159.608 36.1761 159.406 36.1318 159.279 36.0683L159.05 36.0113C158.924 36.0113 158.841 35.9542 158.803 35.84C158.638 35.7385 158.549 35.6054 158.537 35.4405C158.499 35.377 158.543 35.2882 158.67 35.1741C158.657 35.1107 158.632 35.0219 158.594 34.9077C158.556 34.7809 158.543 34.6667 158.556 34.5652C158.594 34.5018 158.575 34.4067 158.499 34.2798C158.499 34.1403 158.518 33.9817 158.556 33.8042C158.606 33.7534 158.619 33.5695 158.594 33.2524C158.683 33.1256 158.727 32.948 158.727 32.7197C158.676 32.5167 158.695 32.3138 158.784 32.1108C158.873 31.9078 158.924 31.7049 158.936 31.5019C158.962 31.1848 159.019 30.8741 159.107 30.5696C159.107 30.4428 159.165 30.2399 159.279 29.9608C159.406 29.6817 159.488 29.5168 159.526 29.4661L159.83 29.1617L160.173 29.0285H160.192C160.344 28.9778 160.496 28.9841 160.649 29.0475C161.016 29.187 161.238 29.2949 161.315 29.371C161.264 29.4217 161.232 29.4978 161.219 29.5993C161.207 29.7008 161.194 29.7896 161.181 29.8657C161.131 29.9291 161.093 30.0242 161.067 30.1511ZM167.677 35.4024L167.563 35.0789L167.354 33.8042C167.291 33.5632 167.259 33.3475 167.259 33.1573L167.335 32.3201C167.335 32.1806 167.341 32.1045 167.354 32.0918C167.202 32.0918 166.973 32.2757 166.669 32.6435C166.644 32.6816 166.606 32.745 166.555 32.8338C166.022 33.6837 165.705 34.7048 165.604 35.8971C165.502 36.1127 165.369 36.2205 165.204 36.2205C164.861 36.1444 164.671 36.1064 164.633 36.1064L164.5 36.1254H164.253C163.961 36.1 163.771 35.9859 163.682 35.7829C163.631 35.7195 163.606 35.5546 163.606 35.2882V35.0219L163.549 33.9754V32.4152C163.549 32.2376 163.536 32.0157 163.511 31.7493C163.485 31.4576 163.479 31.0009 163.492 30.3794C163.504 29.7452 163.498 29.409 163.473 29.371C163.447 29.3202 163.434 29.2568 163.434 29.1807C163.434 29.1046 163.454 29.0285 163.492 28.9524C163.53 28.8763 163.701 28.7938 164.005 28.705C164.17 28.6036 164.31 28.5528 164.424 28.5528C164.601 28.5909 164.83 28.667 165.109 28.7811C165.299 28.8192 165.394 29.0031 165.394 29.3329C165.42 29.8783 165.42 30.2716 165.394 30.5126C165.382 30.7536 165.388 31.2419 165.413 31.9776C166.352 30.1764 167.189 29.0919 167.925 28.7241C167.988 28.6606 168.083 28.6289 168.21 28.6289C168.337 28.6289 168.483 28.6924 168.648 28.8192C168.813 28.946 168.927 29.0285 168.99 29.0665C169.054 29.1046 169.123 29.168 169.2 29.2568C169.288 29.3456 169.358 29.4027 169.409 29.4281C169.561 29.6817 169.593 30.2779 169.504 31.2166C169.491 31.3561 169.479 31.4829 169.466 31.5971C169.453 31.6986 169.447 31.9269 169.447 32.282C169.447 32.6372 169.453 32.8845 169.466 33.0241C169.504 33.468 169.523 33.7281 169.523 33.8042L169.618 34.5272C169.745 34.8189 169.808 35.0472 169.808 35.2121C169.821 35.3643 169.935 35.6117 170.151 35.9542C170.24 36.1444 170.202 36.2967 170.037 36.4108C169.783 36.5377 169.644 36.5884 169.618 36.563C169.605 36.5503 169.536 36.563 169.409 36.6011C169.282 36.6518 169.054 36.6645 168.724 36.6391C168.559 36.6011 168.394 36.4996 168.229 36.3347L167.944 36.0493C167.842 35.8971 167.773 35.7322 167.735 35.5546C167.671 35.4912 167.652 35.4405 167.677 35.4024ZM173.829 32.4152C173.766 32.707 173.722 33.0114 173.696 33.3285C173.696 33.8866 173.766 34.3052 173.906 34.5843C173.969 34.6477 174.007 34.7048 174.02 34.7555C174.045 34.7935 174.102 34.8443 174.191 34.9077C174.33 34.7428 174.432 34.5969 174.495 34.4701L175.028 33.5378C175.294 32.8148 175.523 32.244 175.713 31.8254C175.713 31.7493 175.713 31.559 175.713 31.2546C175.726 30.9375 175.612 30.6331 175.371 30.3413C175.244 30.2272 175.149 30.1067 175.085 29.9798C175.022 29.8403 174.895 29.6944 174.705 29.5422C174.476 29.631 174.311 29.872 174.21 30.2652C174.21 30.4555 174.178 30.6267 174.115 30.7789C173.988 31.1087 173.925 31.3878 173.925 31.6161C173.861 31.8952 173.829 32.1615 173.829 32.4152ZM177.996 30.8931C177.996 31.1848 178.028 31.4893 178.091 31.8064C178.091 31.9078 178.129 32.3011 178.206 32.986C178.294 33.6583 178.339 34.2798 178.339 34.8506C178.339 36.1444 178.237 37.1211 178.034 37.7807C177.996 38.009 177.907 38.25 177.768 38.5037C177.641 38.7574 177.578 38.9096 177.578 38.9604C177.502 39.0999 177.267 39.417 176.874 39.9117L176.683 40.0829C176.658 40.0829 176.582 40.1464 176.455 40.2732C175.973 40.5649 175.51 40.7108 175.066 40.7108C174.635 40.7108 174.216 40.584 173.81 40.3303C173.798 40.3303 173.639 40.2225 173.335 40.0068C173.195 39.9561 173.081 39.7849 172.992 39.4931C172.98 39.3663 172.973 39.2838 172.973 39.2458C172.999 39.2458 173.03 39.1189 173.068 38.8652C173.081 38.8272 173.138 38.713 173.24 38.5228C173.303 38.2944 173.487 38.2057 173.791 38.2564C173.944 38.2691 174.051 38.3008 174.115 38.3515C174.153 38.3896 174.235 38.5354 174.362 38.7891C174.438 38.9921 174.508 39.1316 174.571 39.2077C174.635 39.2965 174.711 39.3346 174.8 39.3219C175.053 39.2965 175.263 39.1126 175.428 38.7701C175.453 38.7574 175.51 38.694 175.599 38.5798C175.916 38.1993 176.094 37.749 176.132 37.229C176.132 37.1782 176.144 36.9499 176.17 36.544V35.9922C176.144 35.6624 176.151 35.2185 176.189 34.6604C176.189 34.2925 176.17 34.0515 176.132 33.9374C176.068 34.1023 175.827 34.5843 175.409 35.3834L175.237 35.6307C175.022 35.9478 174.736 36.1318 174.381 36.1825C174.28 36.1191 174.102 36.0874 173.848 36.0874H173.734C173.29 36.0366 172.967 35.9351 172.764 35.7829C172.574 35.7068 172.421 35.5736 172.307 35.3834L172.06 35.0599C172.06 34.9965 172.028 34.9267 171.965 34.8506C171.914 34.7618 171.882 34.7111 171.87 34.6984C171.857 34.673 171.832 34.6287 171.794 34.5652C171.756 34.5018 171.717 34.2798 171.679 33.8993C171.616 33.2778 171.629 32.8148 171.717 32.5104C171.717 32.2567 171.736 32.0537 171.775 31.9015C171.775 31.559 171.819 31.2102 171.908 30.855C171.908 30.6901 171.958 30.3857 172.06 29.9418C172.212 29.5993 172.307 29.39 172.345 29.3139L172.631 28.8763C172.745 28.7368 172.834 28.6353 172.897 28.5719C172.973 28.4957 173.106 28.426 173.297 28.3626L173.487 28.2294L173.791 28.1533C174.032 28.0772 174.362 28.1025 174.781 28.2294C174.908 28.2294 175.034 28.2738 175.161 28.3626C175.428 28.4514 175.599 28.5148 175.675 28.5528C175.751 28.5909 175.846 28.6226 175.96 28.648C176.036 28.4831 176.163 28.3689 176.341 28.3055C176.392 28.2801 176.531 28.2801 176.759 28.3055C176.836 28.3435 176.937 28.3562 177.064 28.3435C177.356 28.3182 177.559 28.4767 177.673 28.8192C177.749 29.1363 177.819 29.5866 177.882 30.1701L177.996 30.8931Z" fill="#B8B8B9" fill-opacity="0.5"/>
<g opacity="0.9">
<g opacity="0.9">
<path opacity="0.9" d="M10.7861 198.533C7.84858 198.533 5.4668 196.15 5.4668 193.211C5.4668 190.272 7.84858 187.889 10.7861 187.889C13.7237 187.889 16.1054 190.272 16.1054 193.211C16.1054 196.15 13.7237 198.533 10.7861 198.533ZM10.7861 188.643C8.28524 188.643 6.26073 190.669 6.26073 193.171C6.26073 195.673 8.28524 197.699 10.7861 197.699C13.287 197.699 15.3115 195.673 15.3115 193.171C15.3115 190.669 13.287 188.643 10.7861 188.643Z" fill="#080809"/>
</g>
<path opacity="0.9" d="M13.2466 192.774H11.1824V190.709H10.3884V192.774H8.32422V193.568H10.3884V195.673H11.1824V193.568H13.2466V192.774Z" fill="#080809"/>
</g>
<g opacity="0.9">
<g opacity="0.9">
<path opacity="0.9" d="M10.7861 16.5528C7.84858 16.5528 5.4668 14.1698 5.4668 11.2308C5.4668 8.29179 7.84858 5.90881 10.7861 5.90881C13.7237 5.90881 16.1054 8.29179 16.1054 11.2308C16.1054 14.1698 13.7237 16.5528 10.7861 16.5528ZM10.7861 6.66342C8.28524 6.66342 6.26073 8.68895 6.26073 11.1911C6.26073 13.6932 8.28524 15.7585 10.7861 15.7585C13.287 15.7585 15.3115 13.7329 15.3115 11.2308C15.3115 8.72867 13.287 6.66342 10.7861 6.66342Z" fill="#080809"/>
</g>
<path opacity="0.9" d="M13.2466 10.8336H11.1824V8.72864H10.3884V10.8336H8.32422V11.6279H10.3884V13.6932H11.1824V11.6279H13.2466V10.8336Z" fill="#080809"/>
</g>
<g opacity="0.7">
<g opacity="0.9">
<path opacity="0.9" d="M263.733 198.533C260.796 198.533 258.414 196.15 258.414 193.211C258.414 190.272 260.796 187.889 263.733 187.889C266.671 187.889 269.053 190.272 269.053 193.211C269.053 196.15 266.711 198.533 263.733 198.533ZM263.733 188.643C261.233 188.643 259.208 190.669 259.208 193.171C259.208 195.673 261.233 197.699 263.733 197.699C266.234 197.699 268.259 195.673 268.259 193.171C268.259 190.669 266.274 188.643 263.733 188.643Z" fill="#080809"/>
</g>
<path opacity="0.9" d="M266.235 192.774H264.132V190.709H263.338V192.774H261.273V193.568H263.338V195.673H264.132V193.568H266.235V192.774Z" fill="#080809"/>
</g>
<g opacity="0.7">
<g opacity="0.9">
<path opacity="0.9" d="M263.733 16.5527C260.796 16.5527 258.414 14.1697 258.414 11.2307C258.414 8.29173 260.796 5.90875 263.733 5.90875C266.671 5.90875 269.053 8.29173 269.053 11.2307C269.053 14.1697 266.711 16.5527 263.733 16.5527ZM263.733 6.66336C261.233 6.66336 259.208 8.68889 259.208 11.191C259.208 13.6931 261.233 15.7584 263.733 15.7584C266.234 15.7584 268.259 13.7329 268.259 11.2307C268.259 8.72861 266.274 6.66336 263.733 6.66336Z" fill="#080809"/>
</g>
<path opacity="0.9" d="M266.235 10.8337H264.132V8.7287H263.338V10.8337H261.273V11.628H263.338V13.6932H264.132V11.628H266.235V10.8337Z" fill="#080809"/>
</g>
<path opacity="0.7" d="M162.868 203.219H111.377V189.346H162.907V203.219H162.868ZM112.484 203.219H161.721V192.528H112.484V203.219Z" fill="black"/>
<path d="M255.041 125.534V124.94H255.001V59.6846C255.001 57.9326 253.59 56.4687 251.787 56.4687H22.0633C20.3115 56.4687 18.8488 57.8811 18.8488 59.6846V125.534C18.8488 127.286 20.26 128.75 22.0633 128.75H251.826C253.578 128.75 255.041 127.338 255.041 125.534Z" stroke="#0F0F11" stroke-width="1.18916" stroke-miterlimit="10"/>
<defs>
<filter id="filter0_i_456_7190" x="0.785156" y="0.268982" width="272.715" height="202.95" filterUnits="userSpaceOnUse" color-interpolation-filters="sRGB">
<feFlood flood-opacity="0" result="BackgroundImageFix"/>
<feBlend mode="normal" in="SourceGraphic" in2="BackgroundImageFix" result="shape"/>
<feColorMatrix in="SourceAlpha" type="matrix" values="0 0 0 0 0 0 0 0 0 0 0 0 0 0 0 0 0 0 127 0" result="hardAlpha"/>
<feOffset/>
<feGaussianBlur stdDeviation="3.96387"/>
<feComposite in2="hardAlpha" operator="arithmetic" k2="-1" k3="1"/>
<feColorMatrix type="matrix" values="0 0 0 0 0 0 0 0 0 0 0 0 0 0 0 0 0 0 0.2 0"/>
<feBlend mode="normal" in2="shape" result="effect1_innerShadow_456_7190"/>
</filter>
<linearGradient id="paint0_linear_456_7190" x1="137.142" y1="203.219" x2="137.142" y2="0.268985" gradientUnits="userSpaceOnUse">
<stop stop-color="#17181A"/>
<stop offset="1" stop-color="#34353E"/>
</linearGradient>
</defs>
</svg>
