<svg width="308" height="26" viewBox="0 0 308 26" fill="none" xmlns="http://www.w3.org/2000/svg">
<rect x="4.5" y="10.4794" width="0.969081" height="5.81449" fill="#E1E1E1"/>
<rect x="15.1602" y="10.4794" width="0.969081" height="5.81449" fill="#E1E1E1"/>
<rect x="25.8203" y="10.4794" width="0.969081" height="5.81449" fill="#E1E1E1"/>
<rect x="36.4785" y="10.4794" width="0.969081" height="5.81449" fill="#E1E1E1"/>
<rect x="47.1387" y="3.6958" width="0.969081" height="19.3816" fill="#E1E1E1"/>
<rect x="57.7988" y="10.4794" width="0.969081" height="5.81449" fill="#E1E1E1"/>
<rect x="68.459" y="10.4794" width="0.969081" height="5.81449" fill="#E1E1E1"/>
<rect x="79.1191" y="10.4794" width="0.969081" height="5.81449" fill="#E1E1E1"/>
<rect x="89.7793" y="10.4794" width="0.969081" height="5.81449" fill="#E1E1E1"/>
<rect x="100.439" y="3.6958" width="0.969081" height="19.3816" fill="#E1E1E1"/>
<rect x="111.1" y="10.4794" width="0.969081" height="5.81449" fill="#E1E1E1"/>
<rect x="121.758" y="10.4794" width="0.969081" height="5.81449" fill="#E1E1E1"/>
<rect x="132.418" y="10.4794" width="0.969081" height="5.81449" fill="#E1E1E1"/>
<rect x="143.078" y="10.4794" width="0.969081" height="5.81449" fill="#E1E1E1"/>
<rect x="153.738" y="3.6958" width="0.969081" height="19.3816" fill="#E1E1E1"/>
<rect x="164.398" y="10.4794" width="0.969081" height="5.81449" fill="#E1E1E1"/>
<rect x="175.059" y="10.4794" width="0.969081" height="5.81449" fill="#E1E1E1"/>
<rect x="185.719" y="10.4794" width="0.969081" height="5.81449" fill="#E1E1E1"/>
<rect x="196.377" y="10.4794" width="0.969081" height="5.81449" fill="#E1E1E1"/>
<rect x="207.037" y="3.6958" width="0.969081" height="19.3816" fill="#E1E1E1"/>
<rect x="217.697" y="10.4794" width="0.969081" height="5.81449" fill="#E1E1E1"/>
<rect x="228.357" y="10.4794" width="0.969081" height="5.81449" fill="#E1E1E1"/>
<rect x="239.018" y="10.4794" width="0.969081" height="5.81449" fill="#E1E1E1"/>
<rect x="249.678" y="10.4794" width="0.969081" height="5.81449" fill="#E1E1E1"/>
<rect x="260.338" y="3.6958" width="0.969081" height="19.3816" fill="#E1E1E1"/>
<rect x="270.998" y="10.4794" width="0.969081" height="5.81449" fill="#E1E1E1"/>
<rect x="281.656" y="10.4794" width="0.969081" height="5.81449" fill="#E1E1E1"/>
<rect x="292.316" y="10.4794" width="0.969081" height="5.81449" fill="#E1E1E1"/>
<rect x="302.977" y="10.4794" width="0.969081" height="5.81449" fill="#E1E1E1"/>
</svg>
