<svg width="59" height="60" viewBox="0 0 59 60" fill="none" xmlns="http://www.w3.org/2000/svg">
<path d="M29.5362 59.0389C45.6502 59.0389 58.7131 45.9695 58.7131 29.8475C58.7131 13.7255 45.6502 0.656006 29.5362 0.656006C13.4223 0.656006 0.359375 13.7255 0.359375 29.8475C0.359375 45.9695 13.4223 59.0389 29.5362 59.0389Z" fill="#604443"/>
<path d="M29.5362 51.6913C41.5942 51.6913 51.3692 41.9115 51.3692 29.8474C51.3692 17.7833 41.5942 8.00342 29.5362 8.00342C17.4781 8.00342 7.70312 17.7833 7.70312 29.8474C7.70312 41.9115 17.4781 51.6913 29.5362 51.6913Z" fill="#0F0F11"/>
<rect x="26.2871" y="13.7715" width="6.3422" height="6.3422" fill="#A0A0A0"/>
<rect x="26.2871" y="39.1403" width="6.3422" height="6.3422" fill="#ACADAD"/>
<rect x="14.1406" y="24.4456" width="6.3422" height="6.3422" transform="rotate(-60 14.1406 24.4456)" fill="#ACADAD"/>
<rect x="36.1113" y="37.13" width="6.3422" height="6.3422" transform="rotate(-60 36.1113 37.13)" fill="#ACADAD"/>
<rect x="17.3125" y="40.3011" width="6.3422" height="6.3422" transform="rotate(-120 17.3125 40.3011)" fill="#ACADAD"/>
<rect x="39.2832" y="27.6167" width="6.3422" height="6.3422" transform="rotate(-120 39.2832 27.6167)" fill="#ACADAD"/>
<circle cx="29.4587" cy="29.6271" r="15.8555" stroke="#ACADAD" stroke-width="2.37832"/>
<path d="M29.5348 32.2701C30.8721 32.2701 31.9562 31.1854 31.9562 29.8474C31.9562 28.5094 30.8721 27.4247 29.5348 27.4247C28.1974 27.4247 27.1133 28.5094 27.1133 29.8474C27.1133 31.1854 28.1974 32.2701 29.5348 32.2701Z" fill="#ACADAD"/>
<path d="M29.536 7.52673C17.1904 7.52673 7.22656 17.5352 7.22656 29.8473C7.22656 42.1593 17.2301 52.1678 29.536 52.1678C41.8418 52.1678 51.8454 42.1593 51.8454 29.8473C51.8454 17.5352 41.8815 7.52673 29.536 7.52673ZM29.536 50.2217C18.3019 50.2217 9.21138 41.087 9.21138 29.887C9.21138 18.687 18.3416 9.55227 29.536 9.55227C40.7303 9.55227 49.8605 18.687 49.8605 29.887C49.8605 41.087 40.77 50.2217 29.536 50.2217Z" fill="#A4A4A4"/>
</svg>
