<svg width="45" height="45" viewBox="0 0 45 45" fill="none" xmlns="http://www.w3.org/2000/svg">
<path d="M22.5362 44.6913C34.5942 44.6913 44.3692 34.9115 44.3692 22.8474C44.3692 10.7833 34.5942 1.00342 22.5362 1.00342C10.4781 1.00342 0.703125 10.7833 0.703125 22.8474C0.703125 34.9115 10.4781 44.6913 22.5362 44.6913Z" fill="#0F0F11"/>
<rect x="19.2871" y="6.77148" width="6.3422" height="6.3422" fill="#A0A0A0"/>
<rect x="19.2871" y="32.1403" width="6.3422" height="6.3422" fill="#ACADAD"/>
<rect x="7.14062" y="17.4456" width="6.3422" height="6.3422" transform="rotate(-60 7.14062 17.4456)" fill="#ACADAD"/>
<rect x="29.1113" y="30.13" width="6.3422" height="6.3422" transform="rotate(-60 29.1113 30.13)" fill="#ACADAD"/>
<rect x="10.3125" y="33.3011" width="6.3422" height="6.3422" transform="rotate(-120 10.3125 33.3011)" fill="#ACADAD"/>
<rect x="32.2832" y="20.6167" width="6.3422" height="6.3422" transform="rotate(-120 32.2832 20.6167)" fill="#ACADAD"/>
<circle cx="22.4587" cy="22.6271" r="15.8555" stroke="#ACADAD" stroke-width="2.37832"/>
<path d="M22.5348 25.2701C23.8721 25.2701 24.9562 24.1854 24.9562 22.8474C24.9562 21.5094 23.8721 20.4247 22.5348 20.4247C21.1974 20.4247 20.1133 21.5094 20.1133 22.8474C20.1133 24.1854 21.1974 25.2701 22.5348 25.2701Z" fill="#ACADAD"/>
<path d="M22.536 0.526733C10.1904 0.526733 0.226562 10.5352 0.226562 22.8473C0.226562 35.1593 10.2301 45.1678 22.536 45.1678C34.8418 45.1678 44.8454 35.1593 44.8454 22.8473C44.8454 10.5352 34.8815 0.526733 22.536 0.526733ZM22.536 43.2217C11.3019 43.2217 2.21138 34.087 2.21138 22.887C2.21138 11.687 11.3416 2.55227 22.536 2.55227C33.7303 2.55227 42.8605 11.687 42.8605 22.887C42.8605 34.087 33.77 43.2217 22.536 43.2217Z" fill="#A4A4A4"/>
</svg>
