<svg width="153" height="85" viewBox="0 0 153 85" fill="none" xmlns="http://www.w3.org/2000/svg">
<path d="M36.875 58.2188L38.2344 54.8438H49.7656L51.125 58.2188H36.875ZM34.25 64.9688L35.5625 61.5938H52.3906L53.8438 64.9688H34.25ZM31.625 71.7188L32.9375 68.3438H55.0625L56.4688 71.7188H31.625ZM4.20312 81H0.546875L31.25 3.375H34.9062L65.5625 81H61.9531L33.0781 7.92188L4.20312 81ZM33.5 15.9375L35.4219 20.25L11.4219 81H7.8125L33.5 15.9375ZM37.25 24.8438L39.0312 29.4844L18.7344 81H15.0781L37.25 24.8438ZM40.8125 34.125L42.5938 38.8594L25.9531 81H22.3438L40.8125 34.125ZM87.3594 81H83.7031L53.0469 3.375H56.6562L87.3594 81ZM49.3906 3.375L80.0938 81H76.4844L45.7812 3.375H49.3906ZM42.125 3.375L72.8281 81H69.1719L38.5156 3.375H42.125ZM124.625 33.75H118.953C116.547 33.75 114.812 33.1406 113.75 31.9219C112.688 30.6719 112.156 29.0312 112.156 27C112.156 22.5 115.516 20.25 122.234 20.25C128.547 20.25 133.297 21.1875 136.484 23.0625L133.766 25.125C131.578 24.125 127.734 23.625 122.234 23.625C119.547 23.625 117.734 23.9219 116.797 24.5156C115.891 25.1094 115.438 25.9375 115.438 27C115.438 28.0625 115.688 28.8906 116.188 29.4844C116.688 30.0781 117.609 30.375 118.953 30.375H124.766C128.984 30.375 132.781 31.0938 136.156 32.5312C139.562 33.9688 142.359 35.9375 144.547 38.4375C146.734 40.9062 148.406 43.7656 149.562 47.0156C150.719 50.2344 151.297 53.6875 151.297 57.375C151.297 60.375 150.875 63.2188 150.031 65.9062C149.188 68.5938 147.906 71.0625 146.188 73.3125C144.5 75.5625 142.453 77.5156 140.047 79.1719C137.672 80.7969 134.828 82.0625 131.516 82.9688C128.234 83.9062 124.672 84.375 120.828 84.375C114.797 84.375 109.141 83.4531 103.859 81.6094C98.6094 79.7969 94.2344 77.25 90.7344 73.9688L93.4531 71.9531C96.6406 74.8281 100.625 77.0625 105.406 78.6562C110.219 80.2188 115.359 81 120.828 81C125.109 81 128.969 80.3906 132.406 79.1719C135.875 77.9219 138.719 76.2188 140.938 74.0625C143.188 71.9062 144.906 69.4062 146.094 66.5625C147.312 63.7188 147.922 60.6562 147.922 57.375C147.922 53.0312 147.047 49.1094 145.297 45.6094C143.547 42.0781 140.875 39.2188 137.281 37.0312C133.719 34.8438 129.5 33.75 124.625 33.75ZM118.953 37.125H124.297C130.641 37.125 135.594 39.0625 139.156 42.9375C142.75 46.8125 144.547 51.625 144.547 57.375C144.547 63.2188 142.469 68.0625 138.312 71.9062C134.156 75.7188 128.328 77.625 120.828 77.625C115.828 77.625 111.156 76.9375 106.812 75.5625C102.469 74.1875 98.8594 72.25 95.9844 69.75L98.6094 67.6406C101.172 69.7344 104.391 71.3594 108.266 72.5156C112.172 73.6719 116.359 74.25 120.828 74.25C127.422 74.25 132.453 72.6719 135.922 69.5156C139.422 66.3594 141.172 62.3125 141.172 57.375C141.172 52.5 139.703 48.4688 136.766 45.2812C133.859 42.0938 129.688 40.5 124.25 40.5H118.953C114.391 40.5 110.969 39.25 108.688 36.75C106.406 34.25 105.266 31 105.266 27C105.266 23 106.672 19.75 109.484 17.25C112.328 14.75 116.578 13.5 122.234 13.5C126.203 13.5 129.891 13.9688 133.297 14.9062C136.703 15.8125 139.516 17.125 141.734 18.8438L139.062 20.9062C135.156 18.2188 129.547 16.875 122.234 16.875C117.516 16.875 114.062 17.8125 111.875 19.6875C109.719 21.5312 108.641 23.9688 108.641 27C108.641 30.0625 109.438 32.5156 111.031 34.3594C112.656 36.2031 115.297 37.125 118.953 37.125ZM118.953 43.875H124.109C128.672 43.875 132.094 45.1406 134.375 47.6719C136.656 50.2031 137.797 53.4375 137.797 57.375C137.797 61.375 136.375 64.625 133.531 67.125C130.719 69.625 126.484 70.875 120.828 70.875C116.859 70.875 113.156 70.4219 109.719 69.5156C106.312 68.5781 103.5 67.25 101.281 65.5312L103.953 63.4688C107.859 66.1562 113.484 67.5 120.828 67.5C125.547 67.5 128.984 66.5781 131.141 64.7344C133.328 62.8594 134.422 60.4062 134.422 57.375C134.422 54.3438 133.609 51.9062 131.984 50.0625C130.359 48.1875 127.719 47.25 124.062 47.25H118.953C112.547 47.25 107.531 45.3438 103.906 41.5312C100.312 37.6875 98.5156 32.8438 98.5156 27C98.5156 21.1562 100.594 16.3281 104.75 12.5156C108.906 8.67188 114.734 6.75 122.234 6.75C127.234 6.75 131.891 7.4375 136.203 8.8125C140.547 10.1875 144.156 12.125 147.031 14.625L144.406 16.7344C141.844 14.6406 138.625 13.0156 134.75 11.8594C130.875 10.7031 126.703 10.125 122.234 10.125C115.641 10.125 110.594 11.7031 107.094 14.8594C103.625 18.0156 101.891 22.0625 101.891 27C101.891 31.9062 103.359 35.9531 106.297 39.1406C109.234 42.2969 113.453 43.875 118.953 43.875ZM118.953 50.625H124.109C126.516 50.625 128.25 51.25 129.312 52.5C130.375 53.75 130.906 55.375 130.906 57.375C130.906 61.875 127.547 64.125 120.828 64.125C114.484 64.125 109.719 63.1875 106.531 61.3125L109.25 59.25C111.438 60.25 115.297 60.75 120.828 60.75C123.516 60.75 125.312 60.4531 126.219 59.8594C127.156 59.2656 127.625 58.4375 127.625 57.375C127.625 56.3438 127.359 55.5312 126.828 54.9375C126.328 54.3125 125.391 54 124.016 54H118.953C114.641 54 110.734 53.2969 107.234 51.8906C103.766 50.4844 100.906 48.5469 98.6562 46.0781C96.4375 43.6094 94.7344 40.75 93.5469 37.5C92.3594 34.25 91.7656 30.75 91.7656 27C91.7656 24 92.1875 21.1562 93.0312 18.4688C93.875 15.7812 95.1406 13.3125 96.8281 11.0625C98.5469 8.8125 100.594 6.875 102.969 5.25C105.375 3.59375 108.219 2.3125 111.5 1.40625C114.812 0.46875 118.391 0 122.234 0C128.266 0 133.906 0.921875 139.156 2.76562C144.406 4.57812 148.781 7.125 152.281 10.4062L149.562 12.4219C146.375 9.54688 142.391 7.32812 137.609 5.76562C132.828 4.17188 127.703 3.375 122.234 3.375C117.953 3.375 114.078 4 110.609 5.25C107.172 6.46875 104.328 8.15625 102.078 10.3125C99.8594 12.4688 98.1406 14.9688 96.9219 17.8125C95.7344 20.6562 95.1406 23.7188 95.1406 27C95.1406 31.4062 96.0312 35.375 97.8125 38.9062C99.5938 42.4375 102.312 45.2812 105.969 47.4375C109.625 49.5625 113.953 50.625 118.953 50.625Z" fill="white"/>
</svg>
