<svg width="54" height="38" viewBox="0 0 54 38" fill="none" xmlns="http://www.w3.org/2000/svg">
<g opacity="0.2">
<path d="M29.2338 39.0111C29.5622 39.1685 29.9218 39.2496 30.2857 39.2485C30.592 39.2418 30.8938 39.3229 31.1557 39.4821C31.4176 39.6412 31.6289 39.872 31.7646 40.1472C32.0954 40.727 32.3647 41.3399 32.5681 41.9759C32.6521 42.1974 32.6903 42.4338 32.6802 42.6705C32.6702 42.9073 32.6123 43.1396 32.5099 43.3532C32.3446 43.6496 32.1036 43.8967 31.8117 44.069C31.5198 44.2413 31.1873 44.3326 30.8486 44.3337C29.6868 44.4351 28.5189 44.4481 27.3552 44.3726C25.7969 44.33 24.2636 43.9699 22.8487 43.3143C22.5056 43.146 22.1816 42.9412 21.8822 42.7034C21.4634 42.3784 21.1467 41.9395 20.97 41.439C20.3493 39.6222 19.925 37.7439 19.7046 35.8363C19.5139 34.2533 19.4879 32.6547 19.627 31.0663C20.0579 26.3351 21.9132 22.2693 25.4765 19.0945C28.6511 16.1825 32.4524 14.043 36.5855 12.8421C37.6495 12.5495 38.7364 12.3478 39.8343 12.239C40.1759 12.204 40.5253 12.1962 40.8707 12.1729H40.9251C41.4374 12.1729 41.9498 12.1729 42.4777 12.1729C44.9574 12.332 47.3792 12.9938 49.5964 14.1182C51.2383 14.9197 52.2747 16.2387 53.183 17.7249C53.8739 18.8571 54.4794 20.0321 55.0617 21.2266C55.3605 21.8374 55.7603 22.3938 56.0165 23.0358C56.8016 24.9401 57.324 26.9428 57.5691 28.9886C57.6565 29.7388 57.676 30.4954 57.6274 31.2491C57.5285 32.5981 57.2745 33.931 56.8705 35.2216C56.4551 36.5833 55.4653 37.3848 54.4212 38.1824C54.2456 37.9228 54.0862 37.6525 53.9438 37.3731C53.3248 36.3514 52.6362 35.3738 51.8827 34.4473C51.9836 34.4784 52.0108 34.3928 52.0418 34.3345C52.1544 34.1361 52.2708 33.9454 52.364 33.7353C52.7715 32.7379 53.0481 31.6916 53.1869 30.6227C53.2878 29.9963 53.3693 29.3699 53.4314 28.7396C53.5167 28.3258 53.5246 27.8996 53.4547 27.4829C52.9345 25.4822 52.191 23.5467 51.2383 21.7129C50.3352 19.897 48.7576 18.5084 46.8444 17.8455C46.3282 17.6627 45.7692 17.5771 45.2646 17.367C44.2826 17.0069 43.2476 16.8136 42.2021 16.795C41.3714 16.7406 40.5408 16.8223 39.7179 16.795C37.9492 16.7544 36.1953 17.126 34.5943 17.8806C32.1793 18.8844 30.0755 20.5164 28.5002 22.6078C26.4236 25.4364 25.5502 28.6851 25.2863 32.1323V32.2024V32.4864V32.8327C25.2863 32.8871 25.2863 32.9455 25.2863 33.0038C25.058 34.1125 25.0409 35.2543 25.2358 36.3693C25.3399 36.9521 25.6094 37.4925 26.0122 37.9256C26.6203 38.5279 27.4257 38.8887 28.279 38.9411C28.5948 38.9908 28.9142 39.0142 29.2338 39.0111Z" fill="#EF6522"/>
<path d="M29.4544 38.971C29.1185 38.9834 28.7821 38.9665 28.4491 38.9205C27.5958 38.8681 26.7904 38.5073 26.1823 37.905C25.7796 37.4719 25.51 36.9315 25.406 36.3487C25.211 35.2337 25.2281 34.0918 25.4564 32.9832C25.4564 32.9248 25.4564 32.8665 25.4564 32.812C25.5341 32.7109 25.4991 32.5825 25.5418 32.4696C25.7425 31.5914 26.0325 30.7361 26.4074 29.9173C26.9726 28.698 27.6857 27.5532 28.5306 26.509C29.2302 25.6505 30.0101 24.861 30.8596 24.1512C31.932 23.2795 33.1595 22.6194 34.4772 22.2059C36.0488 21.6492 37.6714 21.2492 39.3213 21.0114C39.8298 20.9453 40.3344 20.9025 40.8429 20.8675C41.2933 20.8209 41.7472 20.8209 42.1976 20.8675C42.9972 20.9803 43.7774 21.1982 44.5731 21.3421C44.6675 21.3542 44.7566 21.3933 44.8295 21.4547C44.9025 21.5161 44.9563 21.5972 44.9845 21.6884C45.2353 22.3083 45.2614 22.9966 45.0583 23.6338C44.9884 23.8711 44.9496 24.1162 44.6973 24.2563C44.2158 24.5472 43.6678 24.7093 43.1058 24.7271C42.1735 24.734 41.2425 24.8016 40.3189 24.9294C39.2024 25.0394 38.0939 25.22 37.0002 25.4702C35.8962 25.7201 34.8406 26.1499 33.8755 26.7425C33.2393 27.1665 32.6324 27.6331 32.059 28.1392C31.3994 28.6772 30.8249 29.3121 30.355 30.0224C29.9668 30.6449 29.6912 31.3141 29.9008 32.0689C29.9643 32.4014 30.0961 32.717 30.2879 32.9956C30.4797 33.2743 30.7273 33.5099 31.0148 33.6874C31.4416 33.8899 31.9149 33.9733 32.385 33.9287C32.8524 33.9176 33.3171 33.8549 33.7707 33.7419C35.7052 33.2182 37.5595 32.4328 39.2825 31.4075C40.2664 30.8121 41.3065 30.3156 42.3878 29.9251C43.6324 29.4869 44.9654 29.3627 46.2693 29.5633C46.8987 29.6346 47.4991 29.8678 48.0121 30.2402C50.4072 32.2646 52.4678 34.6558 54.1178 37.3253C54.2602 37.6046 54.4196 37.8749 54.5952 38.1345C54.7117 38.5236 54.9135 38.8816 55.0377 39.2745C55.488 40.7141 54.8436 41.6479 53.4851 42.0214C53.1793 42.1692 52.8305 42.2009 52.5031 42.1109C51.9973 41.887 51.5297 41.5851 51.1174 41.216L50.5235 40.6752C50.341 40.4495 50.1353 40.255 49.9374 40.0332C49.3575 39.3495 48.838 38.6166 48.3848 37.8427C47.9966 37.2008 47.7792 36.4849 47.3561 35.874C46.9248 35.165 46.3896 34.525 45.7686 33.9753C45.3399 33.6432 44.8356 33.4231 44.301 33.3348C43.7665 33.2465 43.2183 33.2928 42.706 33.4695C41.6569 33.8061 40.661 34.2908 39.7483 34.9091C38.3354 35.7806 36.9885 36.7611 35.4786 37.477C34.3991 37.9545 33.276 38.3258 32.1249 38.5859C31.248 38.7939 30.3543 38.9229 29.4544 38.971Z" fill="#FAE203"/>
<path d="M1.84118 4.88013C1.94599 4.88013 2.05079 4.88013 2.15559 4.88013C2.3871 4.88611 2.61504 4.93881 2.82578 5.03507C3.03653 5.13134 3.22575 5.26919 3.38216 5.44039C4.35374 6.41313 5.41854 7.28757 6.56114 8.05108C9.00264 9.82136 11.5218 11.4788 14.0913 13.0546C15.1937 13.7316 16.3892 14.2529 17.5459 14.8404C18.4387 15.2956 19.3276 15.7431 20.2203 16.1866C20.8083 16.4725 21.3194 16.8954 21.7108 17.42C21.8001 17.5367 21.8816 17.6573 21.9786 17.7662C22.7782 18.6845 22.852 19.7388 22.5531 20.8788C22.46 21.2251 22.3474 21.5675 22.2465 21.9099C22.1884 22.1156 22.0903 22.3078 21.9578 22.4753C21.8254 22.6429 21.6612 22.7826 21.4747 22.8864C21.2882 22.9902 21.0831 23.056 20.8712 23.08C20.6592 23.1041 20.4446 23.0859 20.2397 23.0265C19.7633 22.9114 19.3517 22.6121 19.0947 22.1939C18.4775 21.2173 17.7361 20.3302 17.0336 19.412C16.8749 19.233 16.7271 19.0446 16.5911 18.8479C15.2379 16.657 13.4552 14.7642 11.351 13.2841C10.5203 12.6849 9.79835 11.9652 8.92501 11.401C6.76298 9.98866 4.50781 8.73196 2.2371 7.51027C1.63158 7.18344 1.02218 6.86181 0.408892 6.54536C0.274283 6.46344 0.165023 6.34565 0.093296 6.20512C0.0215689 6.0646 -0.00980492 5.90686 0.00267314 5.74951C0.0151512 5.59215 0.0709906 5.44137 0.163964 5.31397C0.256938 5.18656 0.383391 5.08755 0.529221 5.02797C0.75028 4.93791 0.98552 4.88785 1.22402 4.88013H1.28224H1.75191H1.84118Z" fill="#EF6522"/>
<path d="M13.3771 29.1307C13.9981 29.1307 14.623 29.1812 15.2441 29.1851C15.7493 29.2172 16.2266 29.4282 16.591 29.7804C17.0051 30.0649 17.3429 30.4474 17.5744 30.8939C17.806 31.3404 17.9241 31.8373 17.9185 32.3405C17.8913 33.2937 17.4721 33.8073 16.5793 34.1264C16.3352 34.2216 16.0725 34.2596 15.8115 34.2374C15.5504 34.2151 15.2979 34.1332 15.0733 33.998C13.9462 33.3846 12.8585 32.7011 11.8167 31.9514C11.1254 31.4846 10.3202 31.2156 9.48776 31.1733C8.21761 31.0894 6.95753 30.8914 5.72266 30.5819C5.15124 30.4379 4.56509 30.3609 3.97596 30.3523C3.05158 30.3203 2.13189 30.2057 1.22782 30.01C0.206976 29.7765 0.0323078 28.9556 0.109939 28.2591C0.119173 28.1267 0.172326 28.0011 0.260946 27.9024C0.349565 27.8037 0.468562 27.7375 0.599013 27.7144C1.13281 27.5868 1.6913 27.6083 2.21374 27.7767C3.2313 28.1092 4.27535 28.3539 5.3345 28.5081C6.18456 28.6404 7.03462 28.7766 7.88856 28.8389C8.40093 28.8778 8.91717 28.9244 9.44118 28.9595C10.7337 29.049 12.0263 29.0879 13.3227 29.1229L13.3771 29.1307Z" fill="#EF6522"/>
<path d="M30.5217 13.5642C29.9026 13.491 29.2958 13.3366 28.7168 13.1051C27.5057 12.7161 26.939 11.8017 26.5974 10.6656C26.3273 9.84723 26.1464 9.00191 26.0579 8.14445C25.9311 6.56446 25.6503 5.00071 25.2195 3.47557C25.0409 2.85305 24.7615 2.26166 24.614 1.62747C24.5896 1.49893 24.5896 1.36694 24.614 1.2384C24.6143 1.18072 24.6352 1.12506 24.673 1.08152C24.7107 1.03798 24.7628 1.00943 24.8197 1.00106C25.0176 1.00106 25.2389 0.934918 25.3825 1.13724C25.6038 1.44849 25.8211 1.75976 26.0307 2.0788C26.9662 3.49891 27.8434 4.95405 28.8565 6.31969C29.3922 7.03948 30.0908 7.61142 30.6692 8.2923C31.0573 8.77086 31.5192 9.21051 31.9268 9.68518C32.3114 10.182 32.5603 10.7707 32.6488 11.3932C32.7056 11.6394 32.7161 11.8941 32.6798 12.1441C32.5634 12.9223 32.0433 13.4008 31.1505 13.5409C30.9423 13.5713 30.7315 13.5791 30.5217 13.5642Z" fill="#EF6522"/>
<path d="M47.2272 12.0243C46.5052 12.106 45.6125 11.3278 45.3796 10.7053C45.319 10.5394 45.292 10.363 45.3003 10.1865C45.3086 10.01 45.352 9.83694 45.4279 9.67747C45.5038 9.51801 45.6108 9.37535 45.7425 9.25788C45.8741 9.1404 46.0279 9.05048 46.1947 8.99338C47.4446 8.51095 48.5155 7.65357 49.2611 6.53833C49.6688 5.9359 49.9281 5.24523 50.018 4.52292C50.0517 4.28946 50.117 4.06169 50.2121 3.84593C50.6074 2.84747 50.8684 1.80078 50.9884 0.733347C50.9884 0.667204 51.0117 0.604952 51.0195 0.53881C51.0467 0.375399 51.1398 0.344275 51.2834 0.406526C51.5515 0.511604 51.7713 0.712501 51.9003 0.970444C52.0294 1.22839 52.0585 1.52509 51.9821 1.8033C51.7764 2.70595 51.5318 3.60082 51.4076 4.52681C51.3028 5.30496 51.0195 6.0014 50.9108 6.76399C50.8642 7.11804 50.9108 7.47599 50.8526 7.83394C50.7994 8.13842 50.6985 8.43256 50.5537 8.70547C50.2742 9.21904 50.0918 9.77931 49.8084 10.289C49.508 10.9369 49.0015 11.4665 48.3684 11.7947C48.0084 11.9509 47.6195 12.0291 47.2272 12.0243Z" fill="#EE6422"/>
<path d="M48.3734 37.8386C48.8266 38.6125 49.3461 39.3454 49.926 40.0291C50.1162 40.2509 50.3142 40.4454 50.5121 40.6711C50.3879 40.7294 50.2598 40.78 50.124 40.8501C49.7789 41.0718 49.3631 41.1552 48.9595 41.0835C48.3635 41.0348 47.777 40.9038 47.2167 40.6944C47.1017 40.663 46.9955 40.6055 46.9062 40.5263C46.817 40.4471 46.7471 40.3483 46.7021 40.2377C46.6571 40.1271 46.638 40.0076 46.6465 39.8884C46.655 39.7693 46.6907 39.6536 46.7509 39.5505C46.9848 39.0123 47.3225 38.5257 47.7446 38.1188C47.9348 37.9514 48.1754 37.9515 48.3734 37.8386Z" fill="#EF6522"/>
<path d="M41.1637 12.1325H41.1094C41.1288 12.1131 41.1443 12.1092 41.1637 12.1325Z" fill="#61290C"/>
</g>
</svg>
