<svg width="33" height="33" viewBox="0 0 33 33" fill="none" xmlns="http://www.w3.org/2000/svg">
<g clip-path="url(#clip0_580_5733)">
<path d="M5.73994 2.6126e-06H26.6739C27.4278 -0.00072624 28.1745 0.151051 28.8713 0.446648C29.568 0.742246 30.201 1.17586 30.7342 1.72267C31.2673 2.26949 31.6901 2.91877 31.9783 3.63336C32.2665 4.34794 32.4145 5.11381 32.4138 5.88712V26.5267C32.4145 27.3 32.2665 28.0658 31.9783 28.7804C31.6901 29.495 31.2673 30.1443 30.7342 30.6911C30.201 31.2379 29.568 31.6715 28.8713 31.9671C28.1745 32.2627 27.4278 32.4145 26.6739 32.4138H5.73994C4.98597 32.4145 4.23925 32.2627 3.54252 31.9671C2.8458 31.6715 2.21275 31.2379 1.67961 30.6911C1.14646 30.1443 0.72369 29.495 0.435482 28.7804C0.147275 28.0658 -0.000708084 27.3 2.54729e-06 26.5267V5.88712C-0.000708084 5.11381 0.147275 4.34794 0.435482 3.63336C0.72369 2.91877 1.14646 2.26949 1.67961 1.72267C2.21275 1.17586 2.8458 0.742246 3.54252 0.446648C4.23925 0.151051 4.98597 -0.00072624 5.73994 2.6126e-06Z" fill="#659AD2"/>
<path d="M14.1102 26.2774C8.56343 26.2774 4.05078 21.7647 4.05078 16.2179C4.05078 10.6711 8.56343 6.15845 14.1102 6.15845C17.6894 6.15845 21.0275 8.08454 22.8216 11.185L18.4681 13.7042C17.5702 12.1523 15.9002 11.1882 14.1102 11.1882C11.3368 11.1882 9.08051 13.4444 9.08051 16.2179C9.08051 18.9913 11.3368 21.2476 14.1102 21.2476C15.9004 21.2476 17.5704 20.2835 18.4684 18.7313L22.8219 21.2504C21.0278 24.3512 17.6896 26.2774 14.1102 26.2774Z" fill="white"/>
<path d="M24.1696 15.6592H23.0518V14.5415H21.9342V15.6592H20.8164V16.7769H21.9342V17.8947H23.0518V16.7769H24.1696V15.6592Z" fill="white"/>
<path d="M28.361 15.6592H27.2432V14.5415H26.1256V15.6592H25.0078V16.7769H26.1256V17.8947H27.2432V16.7769H28.361V15.6592Z" fill="white"/>
</g>
<defs>
<clipPath id="clip0_580_5733">
<rect width="32.4138" height="32.4138" fill="white"/>
</clipPath>
</defs>
</svg>
