<svg width="33" height="33" viewBox="0 0 33 33" fill="none" xmlns="http://www.w3.org/2000/svg">
<g clip-path="url(#clip0_580_5725)">
<path d="M5.73994 2.6126e-06H26.6738C27.4278 -0.00072624 28.1745 0.151051 28.8713 0.446648C29.568 0.742246 30.201 1.17586 30.7342 1.72267C31.2673 2.26949 31.6901 2.91877 31.9783 3.63336C32.2665 4.34794 32.4145 5.11381 32.4138 5.88712V26.5267C32.4145 27.3 32.2665 28.0658 31.9783 28.7804C31.6901 29.495 31.2673 30.1443 30.7342 30.6911C30.201 31.2379 29.568 31.6715 28.8713 31.9671C28.1745 32.2627 27.4278 32.4145 26.6738 32.4138H5.73994C4.98596 32.4145 4.23925 32.2627 3.54252 31.9671C2.8458 31.6715 2.21275 31.2379 1.67961 30.6911C1.14646 30.1443 0.72369 29.495 0.435482 28.7804C0.147275 28.0658 -0.000708084 27.3 2.54729e-06 26.5267V5.88712C-0.000708084 5.11381 0.147275 4.34794 0.435482 3.63336C0.72369 2.91877 1.14646 2.26949 1.67961 1.72267C2.21275 1.17586 2.8458 0.742246 3.54252 0.446648C4.23925 0.151051 4.98596 -0.00072624 5.73994 2.6126e-06V2.6126e-06Z" fill="#F7DF1E"/>
<path d="M21.8291 25.3625C22.482 26.4286 23.3314 27.2122 24.8338 27.2122C26.0959 27.2122 26.9021 26.5814 26.9021 25.7098C26.9021 24.6654 26.0737 24.2954 24.6846 23.6878L23.9231 23.3611C21.7251 22.4247 20.265 21.2516 20.265 18.7717C20.265 16.4873 22.0056 14.7483 24.7257 14.7483C26.6623 14.7483 28.0546 15.4223 29.0579 17.187L26.686 18.71C26.1638 17.7736 25.6004 17.4047 24.7257 17.4047C23.8336 17.4047 23.2681 17.9706 23.2681 18.71C23.2681 19.6237 23.8341 19.9937 25.1409 20.5596L25.9024 20.8858C28.4904 21.9956 29.9516 23.127 29.9516 25.6707C29.9516 28.413 27.7973 29.9154 24.9043 29.9154C22.0755 29.9154 20.248 28.5674 19.3538 26.8006L21.8291 25.3625ZM11.0692 25.6265C11.5477 26.4754 11.983 27.1931 13.0295 27.1931C14.0302 27.1931 14.6615 26.8016 14.6615 25.2792V14.9222H17.7074V25.3203C17.7074 28.4742 15.8583 29.9097 13.1592 29.9097C10.7204 29.9097 9.30809 28.6476 8.58984 27.1275L11.0692 25.6265Z" fill="black"/>
</g>
<defs>
<clipPath id="clip0_580_5725">
<rect width="32.4138" height="32.4138" fill="white"/>
</clipPath>
</defs>
</svg>
