<svg width="33" height="33" viewBox="0 0 33 33" fill="none" xmlns="http://www.w3.org/2000/svg">
<g clip-path="url(#clip0_580_5728)">
<path d="M5.73994 2.6126e-06H26.6738C27.4278 -0.00072624 28.1745 0.151051 28.8713 0.446648C29.568 0.742246 30.201 1.17586 30.7342 1.72267C31.2673 2.26949 31.6901 2.91877 31.9783 3.63336C32.2665 4.34794 32.4145 5.11381 32.4138 5.88712V26.5267C32.4145 27.3 32.2665 28.0658 31.9783 28.7804C31.6901 29.495 31.2673 30.1443 30.7342 30.6911C30.201 31.2379 29.568 31.6715 28.8713 31.9671C28.1745 32.2627 27.4278 32.4145 26.6738 32.4138H5.73994C4.98596 32.4145 4.23925 32.2627 3.54252 31.9671C2.8458 31.6715 2.21275 31.2379 1.67961 30.6911C1.14646 30.1443 0.72369 29.495 0.435482 28.7804C0.147275 28.0658 -0.000708084 27.3 2.54729e-06 26.5267V5.88712C-0.000708084 5.11381 0.147275 4.34794 0.435482 3.63336C0.72369 2.91877 1.14646 2.26949 1.67961 1.72267C2.21275 1.17586 2.8458 0.742246 3.54252 0.446648C4.23925 0.151051 4.98596 -0.00072624 5.73994 2.6126e-06Z" fill="#000B1D"/>
<path d="M16.1618 5.34839C10.5434 5.34839 10.8943 7.78486 10.8943 7.78486L10.9006 10.309H16.2621V11.0669H8.77099C8.77099 11.0669 5.17578 10.6592 5.17578 16.3282C5.17578 21.9972 8.31376 21.7962 8.31376 21.7962H10.1865V19.1655C10.1865 19.1655 10.0856 16.0275 13.2744 16.0275C16.4632 16.0275 18.5921 16.0275 18.5921 16.0275C18.5921 16.0275 21.5797 16.0758 21.5797 13.1401C21.5797 10.2044 21.5797 8.28594 21.5797 8.28594C21.5797 8.28594 22.0333 5.34839 16.1618 5.34839ZM13.2055 7.04578C13.7389 7.04578 14.1701 7.47692 14.1701 8.01035C14.1701 8.54378 13.7389 8.97492 13.2055 8.97492C12.6721 8.97492 12.2409 8.54378 12.2409 8.01035C12.2409 7.47692 12.6721 7.04578 13.2055 7.04578Z" fill="url(#paint0_linear_580_5728)"/>
<path d="M16.3225 27.3649C21.9409 27.3649 21.59 24.9284 21.59 24.9284L21.5838 22.4043H16.2223V21.6464H23.7133C23.7133 21.6464 27.3085 22.0541 27.3085 16.3851C27.3085 10.7161 24.1706 10.9171 24.1706 10.9171H22.2978V13.5478C22.2978 13.5478 22.3987 16.6858 19.2099 16.6858C16.0211 16.6858 13.8923 16.6858 13.8923 16.6858C13.8923 16.6858 10.9046 16.6375 10.9046 19.5732C10.9046 22.5089 10.9046 24.4274 10.9046 24.4274C10.9046 24.4274 10.451 27.3649 16.3225 27.3649ZM19.2788 25.6675C18.7454 25.6675 18.3143 25.2364 18.3143 24.703C18.3143 24.1695 18.7454 23.7384 19.2788 23.7384C19.8122 23.7384 20.2434 24.1695 20.2434 24.703C20.2434 25.2364 19.8122 25.6675 19.2788 25.6675Z" fill="url(#paint1_linear_580_5728)"/>
</g>
<defs>
<linearGradient id="paint0_linear_580_5728" x1="7.30268" y1="7.27282" x2="18.2462" y2="18.2529" gradientUnits="userSpaceOnUse">
<stop stop-color="#387EB8"/>
<stop offset="1" stop-color="#366994"/>
</linearGradient>
<linearGradient id="paint1_linear_580_5728" x1="14.0357" y1="14.2579" x2="25.789" y2="25.5182" gradientUnits="userSpaceOnUse">
<stop stop-color="#FFE052"/>
<stop offset="1" stop-color="#FFC331"/>
</linearGradient>
<clipPath id="clip0_580_5728">
<rect width="32.4138" height="32.4138" fill="white"/>
</clipPath>
</defs>
</svg>
