<svg width="72" height="51" viewBox="0 0 72 51" fill="none" xmlns="http://www.w3.org/2000/svg">
<path d="M22.0608 25.215H18.3253V48.8761H22.9066V50.2181H0V48.8761H4.58132V2.1189H0V0.776931H21.2855C27.394 0.776931 31.7169 1.10654 34.2542 1.76575C36.8385 2.37788 38.6476 3.13127 39.6813 4.02592C41.9367 5.86231 43.0644 8.78169 43.0644 12.7841C43.0644 16.7864 42.0777 19.6587 40.1042 21.401C38.1307 23.0961 35.1235 24.1084 31.0825 24.4381V24.6499C34.8885 25.1679 37.5434 26.298 39.047 28.0402C40.5506 29.7824 41.3024 32.7018 41.3024 36.7983V40.5417C41.3024 42.9903 41.4199 44.6383 41.6548 45.4859C41.9367 46.3334 42.5006 46.7572 43.3464 46.7572C44.1921 46.7572 44.85 46.3805 45.3199 45.6271C45.8367 44.8266 38.1687 43.4403 38.5916 40.9447L39.7898 41.086C39.2729 45.0884 46.4946 47.5106 45.1789 48.8761C43.9102 50.2416 41.3494 50.9244 37.4964 50.9244C33.6434 50.9244 30.8946 50.0297 29.25 48.2404C27.6524 46.404 26.8536 42.9903 26.8536 37.9991V32.8431C26.8536 30.2062 26.5012 28.2756 25.7964 27.0514C25.1385 25.8271 23.8934 25.215 22.0608 25.215ZM18.3253 2.1189V23.873H20.5807C23.259 23.873 25.2325 23.049 26.5012 21.401C27.8169 19.7529 28.4747 17.069 28.4747 13.3491V11.3008C28.4747 7.58097 27.8404 5.13246 26.5717 3.95529C25.35 2.73103 23.3765 2.1189 20.6512 2.1189H18.3253Z" fill="#E3E4E8"/>
<path d="M55.5072 49.4411C57.8566 49.4411 59.9241 48.8055 61.7096 47.5341C63.5422 46.2628 64.4584 44.3558 64.4584 41.8131C64.4584 39.2233 63.4717 37.2457 61.4982 35.8801C59.5717 34.5146 56.7994 33.3375 53.1813 32.3486C49.6103 31.3127 47.0024 30.4181 45.3578 29.6647C43.7603 28.9113 42.2332 27.9225 40.7765 26.6982C37.8633 24.2497 36.4067 20.4592 36.4067 15.3268C36.4067 11.136 37.8868 7.53389 40.847 4.52033C43.8542 1.50678 47.9422 0 53.1109 0C55.6012 0 58.1856 0.376694 60.8639 1.13008C63.5892 1.83639 65.2807 2.18954 65.9386 2.18954C66.5964 2.18954 67.1837 1.71867 67.7006 0.776931H68.4759L68.9693 15.0442H67.8416C65.5862 10.9477 63.2133 7.67515 60.7229 5.22664C58.2795 2.73103 55.6012 1.48323 52.688 1.48323C49.8217 1.48323 47.5898 2.16599 45.9922 3.53151C44.3946 4.84994 43.5958 6.63924 43.5958 8.8994C43.5958 11.1125 44.5356 12.8312 46.4151 14.0554C48.3416 15.2326 50.691 16.1979 53.4633 16.9512C56.2356 17.7046 58.0446 18.2226 58.8904 18.5051C59.7831 18.7876 60.8639 19.1879 62.1325 19.7058C63.4482 20.1767 64.5054 20.6947 65.3042 21.2597C66.15 21.7776 67.0193 22.4604 67.9121 23.308C68.8518 24.1084 69.5801 25.0031 70.097 25.9919C71.3657 28.2521 72 30.936 72 34.0438C72 39.1291 70.4024 43.2257 67.2072 46.3334C64.059 49.3941 59.9006 50.9244 54.7319 50.9244C52.0536 50.9244 41.5256 51.0728 37.1205 50.9538C32.7153 50.8348 39.7898 48.8055 39.7898 48.8055C39.7898 48.8055 38.4976 49.5118 37.8868 50.9244H36.9L36.1952 34.1144L41.0812 33.2962C41.9446 41.3893 42.0922 41.7895 45.2874 44.8502C48.5295 47.9108 51.9362 49.4411 55.5072 49.4411Z" fill="#E3E4E8"/>
</svg>
